<?xml version="1.0" encoding="UTF-8" standalone="no"?><!DOCTYPE svg PUBLIC "-//W3C//DTD SVG 1.1//EN" "http://www.w3.org/Graphics/SVG/1.1/DTD/svg11.dtd"><svg width="100%" height="100%" viewBox="0 0 168 243" version="1.1" xmlns="http://www.w3.org/2000/svg" xmlns:xlink="http://www.w3.org/1999/xlink" xml:space="preserve" xmlns:serif="http://www.serif.com/" style="fill-rule:evenodd;clip-rule:evenodd;stroke-linejoin:round;stroke-miterlimit:2;"><g id="layer1-1-4-16"></g><g id="text3788-6"></g><g id="layer1-1-4-16-0"></g><g id="g4323"><g id="g4327"><path id="path4329" d="M89.53,221.181c0.383,-6.3 0.03,-13.063 0.286,-18.19c-0.181,-0.362 0.466,-1.358 0.501,-1.358c-0.387,-0.761 -0.52,-2.712 -0.037,-4.445c3.781,-15.719 10.66,-27.961 17.748,-39.378c5.819,18.829 -12.31,32.089 -16.096,48.562c-1.263,5.704 -1.064,9.685 -1.542,14.836l-0.859,-0.027Zm-30.183,0.309l-21.668,-36.042l4.686,-2.48l22.274,38.383l-5.292,0.139Zm27.805,-66.923c0.193,1.035 0.947,1.59 1.746,1.114c0.783,-0.466 0.873,-0.498 0.387,0.32c-1.073,1.806 1.111,3.547 2.507,1.996c0.496,-0.551 0.578,-1.447 0.125,-1.9c-0.511,-0.512 -0.622,-0.778 0.13,-0.389c1.891,0.823 2.927,-2.136 1.094,-3.127c-0.473,-0.256 -1.391,-0.025 -1.737,0.366c-0.417,0.472 -0.476,0.307 -0.366,-0.059c0.066,-0.217 0.112,-0.568 0.268,-0.987c0.123,-0.329 0.211,-0.776 0.211,-0.776l-1.931,0.026c0,0 0.157,0.478 0.316,0.881c0.149,0.378 0.206,0.662 0.279,0.819c0.261,0.567 -0.052,0.358 -0.574,-0.061c-0.738,-0.592 -1.662,-0.423 -2.186,0.358c-0.193,0.46 -0.354,0.937 -0.269,1.417Zm2.731,-29.369l4.151,-0.143l4.592,13.619c-3.641,6.571 -4.612,13.975 -0.346,21.467l-13.166,0.053c3.066,-11.312 3.52,-23.303 4.768,-34.996Zm4.376,17.724c0.556,-0.54 0.626,-1.518 0.116,-2.169c-0.64,-0.818 -0.494,-0.86 0.364,-0.327c1.238,0.769 2.416,-0.904 1.684,-2.379c-0.465,-0.937 -1.963,-1.141 -2.534,-0.306c-0.476,0.696 -0.424,0.06 -0.059,-0.865c0.134,-0.34 0.327,-0.979 0.327,-0.979l-2.012,0.049c0,0 0.261,0.616 0.4,1.011c0.37,1.049 0.385,1.382 -0.183,0.707c-1.23,-1.113 -2.669,-0.301 -2.679,1.302c0.015,1.232 1.049,2.021 1.952,1.443c0.548,-0.351 0.795,-0.436 0.178,0.37c-0.426,0.767 -0.27,1.743 0.294,2.2c0.773,0.503 1.599,0.472 2.151,-0.058l0,-0.001Zm-27.804,4.311c0.161,-0.129 0.221,-0.045 0.122,0.129c-0.084,0.148 -0.3,0.359 -0.485,0.582c-0.936,1.132 0.281,2.565 1.794,2.34c1.03,-0.154 1.631,-1.908 0.869,-2.599c-0.247,-0.178 -0.44,-0.211 -0.628,-0.455c-0.015,-0.097 0.027,-0.163 0.119,-0.125c0.135,0.061 0.409,0.299 0.548,0.34c0.958,0.279 1.68,-0.151 1.921,-0.882c0.152,-0.846 0.002,-1.754 -0.638,-2.227c-0.595,-0.429 -1.472,-0.304 -1.983,0.432c-0.523,0.753 -0.596,0.037 -0.169,-1.002c0.16,-0.389 0.269,-0.944 0.269,-0.944l-1.849,0.111c0,0 0.099,0.43 0.263,0.925c0.413,1.129 0.708,1.453 0.183,0.87c-2.262,-1.434 -3.009,0.525 -3.044,1.304c-0.067,1.466 1.907,2.293 2.709,1.2l0,0.001Zm9.002,-22.125l3.338,0.005c-2.488,14.48 -7.622,26.616 -16.282,34.981l-16.328,-0.017l-7.88,-5.933l3.03,-4.276c20.734,2.263 29.54,-8.875 34.122,-24.759l0,-0.001Zm-14.957,33.588c0.976,-0.468 1.38,-1.666 0.732,-2.468c-0.586,-0.725 -0.646,-0.952 0.253,-0.388c1.203,0.754 2.361,-0.759 1.769,-2.236c-0.368,-0.919 -1.524,-1.201 -2.354,-0.574c-0.73,0.592 -0.716,0.328 -0.336,-0.604c0.188,-0.461 0.332,-1.2 0.332,-1.2l-2.046,0.036c0,0 0.149,0.526 0.298,0.886c0.343,0.827 0.467,1.207 0.308,1.21c-0.077,0.001 -0.33,-0.251 -0.479,-0.397c-0.408,-0.404 -1.522,-0.478 -1.935,-0.049c-1.222,1.266 -0.529,3.475 1.028,3.064c1.006,-0.266 1.235,-0.68 0.403,0.346c-1.025,1.264 0.57,3.074 2.023,2.376l0.002,-0Zm-12.906,-0.409c0.845,-0.433 1.126,-1.489 0.652,-2.169c-0.478,-0.685 -0.715,-1.126 0.135,-0.51c1.129,0.611 2.111,-0.206 2.094,-1.593c-0.018,-1.453 -1.527,-2.126 -2.634,-1.25c-0.187,0.148 -0.417,0.282 -0.459,0.283c-0.135,0.002 0.109,-0.784 0.378,-1.299c0.116,-0.224 0.322,-0.679 0.322,-0.679l-2.047,-0.08c0,0 0.116,0.603 0.277,1.066c0.328,0.941 0.409,1.255 -0.164,0.722c-1.542,-1.552 -3.179,0.432 -2.528,2.141c0.345,0.962 1.394,0.96 2.013,0.477c0.561,-0.473 0.275,0.153 -0.11,0.651c-1.048,1.359 0.495,3.041 2.07,2.24l0.001,-0.002Zm93.36,-36.504l0.113,2.677l-26.392,23.894l-1.112,-1.835l27.392,-24.737Zm-98.324,5.237c3.801,-2.939 8.024,-8.209 12.198,-10.96c3.068,7.584 -4.079,15.043 -12.198,10.96Zm69.857,-2.08c-3.856,-14.21 14.23,-13.305 11.965,-10.28l-11.965,10.28Zm-85.96,-9.093l26.127,-23.141l1.193,1.938l-27.563,24.531l0.243,-3.328Zm71.65,-23.447c0.074,0.241 0.868,1.159 0.869,1.242c-0.227,-0.182 -1.572,-0.994 -2.228,-0.2c-0.229,0.291 -0.519,0.984 -0.486,1.703c0.278,1.285 1.631,1.735 2.591,0.853c0.276,-0.254 0.513,-0.562 0.57,-0.454c0.049,0.094 -0.101,0.536 -0.224,0.886c-0.141,0.36 -0.667,1.117 -0.284,1.115l1.859,-0.008c0,0 -0.069,-0.471 -0.293,-0.991c-0.417,-0.973 -0.401,-1.502 0.102,-0.801c0.979,1.364 2.87,0.221 2.669,-1.417c-0.145,-1.182 -1.253,-1.856 -2.066,-1.29c-0.089,0.062 -0.35,0.342 -0.386,0.344c-0.099,0.005 0.172,-0.447 0.352,-0.821c0.597,-1.245 -0.3,-2.394 -1.67,-2.267c-0.442,0.041 -0.926,0.344 -0.928,0.386c-0.514,0.45 -0.597,1.226 -0.445,1.721l-0.001,-0.001Zm22.574,-11.63c2.624,2.599 5.246,4.503 7.868,6.165l-2.463,4.226c-16.75,-1.639 -28.915,5.551 -33.959,24.981l-2.76,0.581c1.015,-12.115 4.744,-24.136 15.814,-35.898l15.5,-0.054Zm-16.044,2.935c0.006,0.574 0.982,1.255 0.766,1.414c-0.099,0.057 -0.681,-0.487 -0.948,-0.518c-1.934,-0.218 -2.329,3.035 -0.412,3.396c0.377,0.071 1.154,-0.184 1.385,-0.389c0.306,-0.273 0.518,-0.498 0.582,-0.473c0.118,0.045 -0.149,0.627 -0.359,1.057c-0.194,0.4 -0.465,1.182 -0.465,1.182c0.767,0.148 1.507,0.181 2.198,0.006c0,0 -0.2,-0.679 -0.399,-1.196c-0.254,-0.661 -0.308,-1.081 -0.138,-1.037l0.311,0.368c0.954,0.882 2.351,0.501 2.715,-0.881c0.342,-1.3 -1.097,-2.633 -2.096,-1.904c-0.349,0.255 -0.35,0.064 -0.002,-0.506c0.317,-0.521 0.238,-1.308 -0.052,-1.776c-1.053,-1.204 -3.135,-0.337 -3.084,1.259l-0.002,0Zm15.791,3.815c-0.053,-0.29 0.015,-0.207 0.297,0.109c0.883,0.991 2.401,0.833 2.785,-0.483c0.383,-1.314 -0.798,-2.813 -1.824,-2.295c-0.534,0.269 -0.543,0.174 -0.239,-0.256c0.785,-1.11 -0.086,-2.568 -1.436,-2.549c-1.235,0.018 -1.96,1.304 -1.357,2.407c0.247,0.452 0.167,0.548 -0.266,0.323c-1.264,-0.659 -2.437,1.504 -1.51,2.785c0.545,0.753 1.804,0.829 2.522,0.079c0.382,-0.399 0.38,-0.209 0.103,0.616c-0.241,0.718 -0.509,1.299 -0.509,1.299l2.185,0.016c0,0 -0.586,-1.199 -0.752,-2.051l-0.001,0Zm-46.735,29.152c0,0 -3.263,-9.759 -4.382,-14.437c2.392,-6.233 5.669,-12.276 0.121,-21.23l13.44,-0.071c-4.132,10.194 -4.171,35.898 -5.146,35.962l-4.034,-0.224Zm1.157,-11.433c0,0 -0.666,-0.986 -0.707,-1.785c-0.081,-0.513 0.041,-0.545 0.289,-0.022c1.2,1.429 2.818,0.043 2.822,-1.225c0.135,-1.16 -1.121,-2.152 -1.925,-1.57c-0.564,0.407 -0.717,0.291 -0.216,-0.466c0.707,-1.066 -0.068,-2.449 -1.336,-2.431c-1.65,0.024 -2.278,1.692 -1.093,2.88c0.875,0.877 0.06,0.359 -0.634,0.047c-1.352,-0.609 -2.234,0.881 -1.625,2.381c0.42,1.035 1.648,1.303 2.367,0.462c0.394,-0.46 0.758,-0.731 0.545,-0.035c-0.111,0.562 -0.712,1.754 -0.712,1.754l2.225,0.01Zm2.05,-15.658c0,0 -0.798,-1.077 -0.936,-1.889c-0.047,-0.299 0.149,-0.224 0.601,0.195c1.449,1.339 3.431,-1.073 2.08,-2.54c-0.464,-0.504 -0.935,-0.65 -1.475,-0.343c-0.674,0.383 -0.621,0.197 -0.284,-0.197c0.493,-0.58 0.454,-1.635 -0.079,-2.146c-1.473,-1.414 -3.796,0.703 -2.426,2.215c0.596,0.658 0.314,0.573 -0.342,0.151c-1.24,-0.799 -2.606,1.4 -1.674,2.687c1.104,1.006 1.93,0.508 2.691,-0.127c0.166,-0.095 0.308,-0.139 0.309,-0.061c0.001,0.146 -0.758,2.09 -0.758,2.09l2.292,-0.034Zm-17.64,-6.044c-0.82,-0.057 -1.422,-8.345 -0.425,-10.972c2.116,-11.076 8.623,-19.155 12.669,-25.946c6.493,-10.114 5.651,-26.886 5.928,-26.218l0.924,0.114c0,0 -0.696,9.835 -0.283,14.277c0.428,3.905 0.336,4.148 0.079,4.537c-0.068,0.364 0.035,1.429 -0.037,1.794c-2.87,14.471 -9.759,29.36 -16.88,40.604l-1.976,1.809Zm66.917,-25.421l-22.068,-37.466l5.284,-0.526c1.968,3.357 21.138,35.37 21.138,35.37l-4.354,2.622Z" style="fill:#d40000;fill-rule:nonzero;"/><path id="path4331" d="M36.002,222.212c2.482,-9.924 -4.339,-32.978 -8.58,-35.982c4.966,-0.238 10.94,-0.154 10.75,-0.657c0,0 21.189,35.884 21.017,36.075c-0.163,0.18 -23.187,0.565 -23.187,0.565l0.001,0Zm85.485,-56.469c-5.119,-0.775 -3.11,-5.375 0.18,-5.86c-0.428,0.078 0.348,-2.286 3,-3.247c0.601,-1.183 1.069,-3.204 1.619,-4.143c-1.59,0.563 -3.52,2.021 -10.75,0.892c0.622,-3.706 7.534,-4.354 10.028,-3.787c1.441,0.358 2.866,2.676 3.304,2.724c4.436,-0.81 10.09,3.52 8.391,7.932c-0.264,0.629 -0.941,-0.745 -2.436,-1.327c-4.832,-1.883 -5.175,-4.708 -6.288,-5.972c-0.403,-0.081 -2.53,4.495 -2.53,4.495l0.673,3.103c1.158,-0.117 6.311,3.311 -0.091,5.656c-1.759,6.609 -5.104,1.955 -5.099,-0.466Zm12.07,-29.521c-0.274,-0.3 0.211,-2.357 0.858,-3.541c0.35,-0.639 1.159,-1.07 1.636,-0.981c0.847,0.159 0.718,1.492 -0.397,5.395c-0.046,0.563 -1.191,0.624 -2.097,-0.872l-0.001,-0.001Zm-101.974,-27.085c-1.405,-0.002 -0.153,-4.136 0.708,-5.45c0.283,-0.408 1.405,0.457 1.464,1.056c0.105,1.072 -1.41,4.818 -2.172,4.394Zm-1.051,-28.09c1.715,0.444 4.424,2.304 5.719,3.325c1.61,1.294 1.176,3.843 2.463,4.067c0.868,-0.467 2.453,-4.644 2.453,-4.644c0,0 0.395,-2.145 -0.738,-2.802c-2.822,-1.637 -2.776,-3.411 -2.597,-3.569c0.832,-2.346 2.497,-1.933 3.396,-2.066c0.017,-1.284 -0.028,-3.993 2.429,-3.72c2.148,0.215 2.367,3.534 1.464,3.567c-0.018,-0.056 4.061,-0.643 4.026,2.269c-0.018,1.578 -2.434,3.603 -3.189,2.871c0,0 0.41,3.145 -3.244,4.231c-0.852,0.942 -1.542,4.942 -1.542,4.588c2.2,-2.157 5.651,-2.669 11.098,-1.909c-3.361,6.774 -12.695,3.628 -13.427,2.321c-4.697,-1.521 -9.103,-3.506 -8.311,-8.529l0.001,0.001Zm40.15,-16.308c4.965,0.476 10.393,-1.222 14.524,-0.338c0.47,0.068 0.983,0.819 1.266,0.986c2.137,1.254 4.369,0.858 7.801,-0.556c0.847,-0.349 16.589,-0.252 16.589,-0.252c3.597,5.721 9.993,16.485 10.131,16.119c0,0 -8.726,-0.087 -12.745,0.179c-2.826,0.187 -1.164,0.6 -3.127,0.697c-13.733,11.207 -16.305,35.362 -16.305,35.362c0,0 4.369,-1.254 5.514,0.049c5.374,-17.124 15.625,-24.961 29.945,-23.463c6.617,0.692 14.525,7.711 14.525,7.711l-14.134,12.495c-10.979,-5.96 -15.644,11.691 -12.316,11.727l28.461,-25.275c0,0 0.492,2.057 0.443,2.126c-2.026,2.887 -35.957,32.809 -35.957,32.809l-1.496,-1.78c0,0 -0.936,0.902 -1.428,1.503c-0.047,0.978 0.273,1.805 0.96,2.569c-6.722,5.86 -6.924,16.585 -1.949,22.428c0,0 -2.201,0.174 -2.432,0.217c-2.796,0.525 -5.718,-14.389 -0.187,-21.344c-2.809,-5.927 -4.548,-13.997 -4.899,-14.37c0.077,0.951 -4.414,0.645 -4.414,0.645c-0.319,12.059 -1.459,23.887 -4.116,35.287l20.628,0.433l-8.749,16.505c0,0 -9.854,-0.244 -14.1,-0.556c-4.438,-2.78 -6.989,-0.653 -11.146,0.389c-5.919,0.201 -14.633,-0.076 -14.633,0.01c-2.968,-6.342 -6.153,-11.003 -10.48,-16.436c-0.551,-0.987 17.521,-0.418 17.521,-0.418c0,0 9.003,-14.801 10.641,-18.98c1.278,-3.261 4.135,-15.129 4.135,-15.129c0.134,0.618 -1.646,-3.081 -5.777,-2.988c-3.368,24.57 -30.333,32.906 -46.6,17.134l-0.157,-2.856l35.717,-31.475l1.594,1.984c-0.342,-0.295 -21.927,19.219 -21.568,19.095c6.416,3.614 13.825,0.66 12.94,-11.249c5.069,-3.982 9.556,-8.618 13.968,-13.35c0.094,-0.185 4.955,11.729 4.84,14.024c2.781,-1.017 4.432,1.098 4.379,0.737c-1.014,-6.894 4.518,-33.054 4.619,-36.061c-3.102,-0.263 -7.213,-0.13 -13.661,-0.392c5.2,10.833 3.416,18.184 -3.811,24.881l-1.518,-2.055c0.615,0.369 10.557,-8.978 2.51,-22.891c-0.367,0.034 -4.228,-0.368 -4.228,-0.368c0,0 7.887,-13.6 8.283,-15.522l-0,0.003Zm38.355,-44.908c0,0 22.58,-0.639 22.589,0.077c-0.695,13.125 2.156,25.09 9.002,36.146c0,0 -10.002,-0.361 -9.819,-0.225l-21.772,-35.998Z" style="fill:#e2cf00;fill-rule:nonzero;"/><path id="path4333" d="M141.821,19.899l-117.381,-0.156l0.728,203.802l117.237,0l-0.584,-203.646Zm-10.736,0.808c-0.01,-0.011 -1.514,21.559 8.892,35.688c-6.355,-1.042 -9.994,0.012 -13.695,2.841l0.506,0.564c5.097,-3.388 9.414,-2.497 13.839,-1.969l-0.121,27.752c-0.032,1.347 -5.171,0.746 -8.42,-1.898c-1.543,-0.985 -3.534,-3.055 -4.426,-4.607c-0.272,-0.472 -0.557,-0.939 -0.636,-1.037c-0.298,-0.372 -2.152,-4.107 -5.554,-11.179c-1.73,-3.596 -4.017,-8.501 -5.874,-12.303c-1.202,-2.462 -3.438,-7.112 -3.595,-7.482c-0.329,-0.773 -2.763,-5.91 -3.71,-7.779c-2.502,-4.937 -6.542,-13.552 -7.984,-16.639c-0.319,-0.801 -0.803,-1.171 0.065,-1.144c0.193,0.005 0.385,0.018 0.496,0.046c0.153,0.083 0.339,-0.284 0.339,-0.284l29.88,-0.569Zm-104.521,116.698l-0.074,-2.182l34.112,-30.435l1.089,1.515l-35.127,31.102Zm32.959,-53.31l-0.451,0.166c-0.877,-4.226 -0.377,-9.872 0.656,-14.117c1.505,-5.893 4.315,-10.619 7.443,-15.368c7.151,-10.846 10.317,-19.022 10.189,-33.592l1.022,0.118c-0.043,2.302 -0.325,4.032 -0.406,7.094c-0.128,3.281 -0.077,5.776 0.245,8.98c0.158,1.574 0.254,2.595 0.009,2.799c-0.117,0.103 -0.222,0.647 -0.116,0.848c-0.017,0.437 -0.072,1.309 -0.072,1.309c-1.638,8.674 -10.421,30.917 -18.519,41.762l0.001,0.001Zm4.265,19.72l-1.807,-2.399c0,0 -1.391,-1.213 -0.141,-2.583c3.612,-3.962 3.635,-8.997 0.144,-13.526c-0.235,-0.575 1.084,-3.48 1.084,-3.48l2.749,0.049c4.287,5.642 5.457,15.612 -2.03,21.938Zm2.526,-22.392c0.085,-0.386 -4.073,-0.237 -4.073,-0.237c2.583,-4.165 4.78,-8.449 6.939,-12.746c3.349,-6.502 7.993,-17.894 9.449,-26.152c1.084,9.658 2.661,23.992 10.301,24.558c2.505,0.186 5.406,-1.672 5.879,-1.364l15.872,-0.136c3.255,7.139 6.752,11.738 10.893,16.622c2.976,1.836 6.605,3.288 10.112,4.231c1.993,0.535 2.183,0.179 6.114,0.785c1.037,0.16 2.618,-0.314 2.602,-0.314c-3.14,2.68 -6.763,1.92 -10.752,0.773c-0.223,-0.065 -0.457,-0.139 -0.691,-0.228l-3.012,4.902c-6.705,-1.719 -28.232,-0.502 -33.907,24.816c0,0 0.583,0.322 0.447,0.147c4.508,-21.976 23.545,-26.357 32.621,-24.168l-0.78,1.289c-15.06,-1.993 -27.322,8.197 -30.242,22.646l0.291,0.285c5.651,-21.846 29.408,-29.929 44.137,-14.787l2.702,-2.069l-0.087,2.801l-36.211,32.82l-1.448,-1.62c0,0 -0.255,0.209 -0.544,0.469c-0.934,0.841 -1.303,1.047 -1.041,1.516c0.262,0.47 1.278,1.527 1.322,1.646c-6.006,5.294 -7.912,15.505 -2.205,22.654c0.637,0.758 0.521,0.961 0.405,0.108c-5.119,-6.027 -4.471,-16.686 1.912,-21.736l1.286,1.824c-2.81,6.675 -4.31,17.086 3.08,17.988c2.647,7.675 -0.398,16.768 -3.799,22.864c-3.603,7.022 -7.97,12.859 -10.696,20.508c-1.324,3.192 -3.433,12.658 -3.322,19.892l-0.794,-0.009c-0.001,-2.952 0.181,-6.452 0.204,-8.69c0.111,-10.909 0.096,-10.262 0.323,-10.539c0.075,-0.092 0.286,-0.189 0.307,-0.265c0.03,-0.115 -0.165,-0.341 -0.241,-0.608c-0.079,-0.273 -0.212,-0.753 -0.199,-1.158c0.013,-0.405 0.364,-0.994 0.297,-1.125c-1.589,-6.021 -1.72,-16.84 -6.851,-21.81c-2.516,-2.337 -5.858,-2.431 -10.186,-0.514c-9.551,0.018 -8.135,0.549 -15.848,0.073c-3.191,-6.32 -7.061,-12.475 -11.248,-17.039c-1.957,-2.361 -4.678,-3.655 -7.237,-5.365c1.026,-2.106 2.19,-3.646 3.462,-4.645c0.264,-0.407 0.444,-0.847 0.785,-1.191c26.009,2.703 31.649,-24.545 30.462,-23.852l-0.23,0.216c-7.111,28.074 -32.416,27.052 -45.136,14.914c0,0 -1.797,1.688 -1.803,-0.165c-0.005,-1.684 0.563,-2.172 0.563,-2.172l35.702,-31.494c0.652,0.449 1.355,1.946 1.648,1.778c0.658,-0.378 1.627,-1.137 1.597,-1.59c-0.023,-0.348 -1.305,-2.533 -1.305,-2.533c9.551,-10.697 5.243,-15.476 2.177,-22.806l-0.002,0.002Zm13.534,-60.119c0.172,-0.002 0.334,0.087 0.455,0.293c0.218,0.372 -0.649,2.541 -1.185,2.923c-0.506,0.362 -0.544,-0.059 -0.177,-2.157c0.107,-0.616 0.528,-1.057 0.907,-1.06l0,0.001Zm52.385,0.037l8.271,0l0.061,34.357c-6.18,-9.396 -9.31,-20.217 -8.331,-34.357l-0.001,0Zm-50.166,0.083c0.206,-0.01 0.389,0.052 0.448,0.214c0.212,0.579 -1,3.081 -2.501,5.156c-0.779,1.076 -1.171,1.388 -1.414,1.131c-0.205,-0.49 -0.199,-1.059 0.518,-1.954c0.591,-0.737 1.597,-2.462 2.012,-3.428c0.179,-0.566 0.357,-1.078 0.937,-1.119l0,0.001Zm8.491,0.123c0.241,0.002 0.489,-0.002 0.558,0.122c1.444,3.185 4.162,6.059 6.944,7.595c0.406,0.249 0.214,0.874 0.351,1.312c-3.125,-0.503 -7.226,-5.291 -8.323,-8.787c-0.006,-0.253 0.229,-0.244 0.47,-0.242l-0.001,0Zm4.887,-0.002c0.622,0.683 1.6,1.508 1.821,2.289c0.135,0.478 0.234,1.027 0.139,1.285c-0.543,0.367 -3.241,-3.019 -3.137,-3.415c0.343,-0.244 0.774,-0.295 1.178,-0.159l-0.001,0Zm-11.7,-0.049c0.265,0.011 0.671,-0.006 0.73,0.21c0.337,1.477 -2.781,7.231 -5.055,8.861c-0.808,0.58 -0.86,0.427 -0.796,-0.545c0.043,-0.653 0.102,-0.601 0.931,-1.458c1.185,-1.223 2.477,-3.111 3.189,-4.784c0.912,-2.145 0.689,-2.28 1,-2.285Zm2.116,0.022c0.297,0.001 0.573,0.109 0.649,0.252c0.104,0.194 -0.035,0.506 -0.132,0.894c-1.027,3.145 -3.581,7.67 -6.579,10.241c-1.166,0.973 -1.364,0.967 -1.449,-0.037c-0.049,-0.584 0.199,-0.754 0.747,-1.165c2.544,-1.908 4.831,-5.219 5.798,-8.602c0.188,-0.659 0.117,-1.25 0.448,-1.45c0.154,-0.092 0.339,-0.132 0.518,-0.131l-0.001,-0.001Zm15.789,5.449c0.121,0.226 0.995,1.702 0.281,1.146c-0.293,-0.26 -0.825,-0.914 -1.671,-1.954c-2.002,-2.459 -2.063,-2.307 -2.023,-2.919c0.02,-0.797 -0.507,-2.105 0.631,-1.766c1.12,1.423 1.823,3.717 2.781,5.493l0.001,0Zm-9.115,-5.4c0.227,-0.004 0.495,0.041 0.719,0.09c1.318,2.681 4.536,5.035 4.524,5.023c0,0 0.081,1.167 -0.036,1.373c-0.067,0.359 -5.112,-3.787 -5.673,-6.268c0.054,-0.16 0.239,-0.213 0.465,-0.218l0.001,0.001Zm-3.59,0.049c1.185,2.354 3.629,7.695 9.371,9.853c0.413,0.097 0.852,1.368 0.537,1.719c-3.149,-0.987 -8.86,-4.322 -10.799,-11.539c0.189,-0.192 0.691,-0.162 0.892,-0.033l-0.001,0Zm-1.542,0.457c-0.197,0.004 2.711,9.083 10.996,11.789c0.716,0.243 1.137,0.578 1.091,1.037c-0.057,0.578 -0.04,0.65 -0.837,0.218c-2.26,-1.277 -5.482,-1.875 -8.172,-0.396c-0.42,0.231 -0.846,0.86 -0.508,1.257c0.193,0.201 0.668,0.052 1.274,-0.203c3.132,-1.318 7.925,-0.543 8.772,1.53c0.601,1.471 0.703,2.556 0.375,2.736c-0.25,0.138 -0.676,-0.357 -1.424,-1.067c-2.383,-2.262 -5.232,-2.89 -7.496,-0.718c-0.49,0.47 -0.975,0.389 -1.146,0.582c-0.166,0.188 0.031,0.61 0.17,1.022c0.146,0.431 0.152,0.549 0.007,0.913c-0.199,0.499 -0.206,1.137 -0.184,1.612c0.053,1.158 0.762,2.156 2.8,3.682c1.587,1.19 2.828,1.859 0.896,0.166c-3.335,-2.923 -3.94,-4.112 -1.779,-3.1c2.158,0.938 5.152,-0.002 7.27,-1.751c0.721,-0.013 1.151,-0.149 1.531,0.151c1.581,4.015 2.873,9.357 4.974,14.535c-2.51,3.068 -11.247,10.579 -17.477,10.311c-5.379,-0.231 -7.279,-9.756 -8.468,-15.019c-0.4,-2.227 -0.858,-4.494 -0.802,-7.64c0,0 0.097,-0.084 0.236,-0.057c0.902,0.184 2.453,0.312 3.241,0.113c1.432,-0.362 1.719,-0.638 1.803,-0.409c0.099,0.269 -0.498,0.874 -1.539,1.646c-0.453,0.335 -1.772,1.023 -1.633,1.124c0.315,0.228 1.91,-0.69 2.178,-0.936c0.417,-0.382 0.704,-0.407 0.903,-0.195c0.234,0.247 0.282,-0.016 -0.49,2.055c-0.85,2.283 -0.769,2.49 0.889,3.897c0.576,0.489 1.104,0.978 1.229,1.191c0.159,0.28 0.266,0.612 0.34,0.718c0.28,0.405 0.108,-0.248 -0.059,-1.285c-0.194,-0.768 -0.889,-1.531 -1.383,-1.902c-0.905,-0.681 -0.765,-1.349 -0.015,-3.667c2.211,-6.839 1.647,-9.889 -0.787,-11.375c-1.098,-0.67 -4.17,-0.491 -5.139,0.385c-0.477,0.432 -0.412,-0.416 -0.336,-0.472c5.839,-4.341 7.208,-8.482 8.697,-12.476l0.001,0Zm11.269,3.351c1.657,1.779 3.72,4.195 4.962,5.914c0.682,0.916 1.042,1.856 1.584,2.818c0.103,0.174 0.205,0.373 0.132,0.455c-0.027,0.034 -0.265,-0.115 -0.396,-0.221c-1.215,-0.99 -6.229,-7.167 -6.229,-7.167c-0.231,-1.014 -0.392,-1.359 -0.053,-1.798l0,-0.001Zm0.991,4.192c0,0 4.345,5.131 6.833,7.655c0.49,1.112 1.427,2.714 1.403,2.984c-0.01,0.119 -0.532,-0.315 -0.532,-0.315c-2.75,-2.741 -5.291,-5.821 -7.931,-8.741c0.025,0.015 -0.209,-1.208 -0.212,-1.703c0.06,-0.242 0.324,0.025 0.438,0.12Zm9.425,13.153c0.585,1.029 1.011,1.95 1.292,2.556c0.464,0.958 0.309,0.985 -0.101,0.632c-3.108,-2.752 -5.711,-6.103 -8.64,-9.173c-0.381,-0.424 -1.14,-1.364 -1.14,-1.364c0.027,0.034 -0.954,-2.212 -0.338,-2.168c0.481,0.203 0.798,0.769 1.109,1.129c1.535,1.778 4.46,4.836 7.816,8.389l0.001,-0.001Zm-27.117,-7.334c1.282,-0.041 2.545,0.317 3.182,1.167c0.579,0.774 0.813,1.998 0.493,2.354c-0.201,0.222 -0.913,-0.404 -0.913,-0.404c-3.019,-1.832 -4.059,-0.95 -5.697,-0.412c-0.233,0.076 -0.482,-0.604 -0.183,-1.279c0.601,-1.12 2.125,-1.394 3.118,-1.427l0.001,0Zm18.998,1.735c3.23,3.502 6.51,7.393 10.005,10.405c0.49,0.452 0.826,0.741 1.049,0.984c0.462,0.989 1.522,3.344 1.522,3.344c-3.745,-2.833 -12.181,-12.598 -12.088,-12.532c0.085,0.045 -0.706,-1.787 -0.488,-2.202l0,0.001Zm-6.321,0.58c0.59,-0.006 1.236,0.194 1.746,0.413c1.627,0.698 2.651,1.442 0.966,1.194c-2.345,-0.345 -3.146,-0.363 -4.006,-0.214c-1.595,0.277 -1.719,0.469 -1.859,0.195c-0.366,-0.719 1.383,-1.57 3.152,-1.589l0,0.001Zm-13.313,0.205c0.587,-0.004 1.226,0.136 1.851,0.432c1.989,0.941 2.34,1.554 0.646,1.259c-0.879,-0.153 -2.49,-0.137 -3.644,0.184c-0.366,0.102 -0.77,0.332 -0.865,0.365c-0.409,0.142 -0.523,-0.19 -0.347,-0.744c0.303,-0.959 1.237,-1.488 2.359,-1.496l0,-0.001Zm14.401,2.746l0.411,0.033c-0.513,3.142 -3.414,2.836 -4.195,0.137l0.411,-0.01c1.528,2.581 2.672,1.063 3.375,-0.159l-0.001,-0.001Zm1.617,0.163c1.341,-0.016 1.254,0.855 -0.142,1.439c-1.07,0.448 -1.191,0.367 -0.799,-0.5c0.377,-0.834 0.338,-0.933 0.942,-0.94l-0.001,0.001Zm-13.816,0.113c0.131,2.832 -3.517,3.35 -3.741,0.263l0.347,-0.018c1.196,2.428 2.575,0.962 3.007,-0.244l0.387,0Zm1.623,0.387c0.413,0.305 0.157,0.724 -0.74,1.316c-0.809,0.544 -1.017,-0.114 -0.35,-1.027c0.28,-0.295 0.739,-0.538 1.09,-0.289Zm6.326,-0.004c0.16,-0.054 0.537,0.711 0.216,0.894c-0.191,0.109 -0.476,-0.205 -0.507,-0.436c-0.025,-0.183 0.082,-0.387 0.292,-0.459Zm10.922,0.177c2.434,2.9 4.885,5.814 12.05,12.126c0,0 1.012,1.948 1.233,2.709c-0.174,0.233 -0.265,0.205 -0.768,-0.064c-4.674,-3.903 -9.019,-8.65 -12.422,-13.062c-0.162,-0.623 -0.522,-1.224 -0.093,-1.71Zm-23.205,0.289c0.276,-0.01 0.666,0.658 0.451,1.06c-0.178,0.151 -0.453,-0.084 -0.573,-0.267c-0.119,-0.182 -0.116,-0.517 -0.042,-0.665c0.043,-0.087 0.099,-0.126 0.163,-0.127l0.001,-0.001Zm24.223,4.017c-0.019,-0.101 11.319,12.33 12.773,12.093c0.677,0.431 2.362,3.964 2.362,3.964c0.049,0.112 0.04,0.319 -0.233,0.173c-1.916,-1.026 -9.93,-8.219 -14.027,-13.573c-0.3,-0.78 -0.663,-1.77 -0.875,-2.657l-0.001,0Zm-13.477,1.825c1.977,1.034 1.126,3.152 -0.96,1.805c-1.645,-1.081 -2.948,-1.179 -2.939,-0.244c0.004,0.396 0.452,0.903 0.886,0.898c0.813,0.057 1.55,0.378 2.348,0.568c1.246,0.289 2.178,-0.068 2.49,-0.886c0.529,-1.389 -0.73,-2.904 -1.558,-2.823c-0.83,0.08 -0.621,0.51 -0.266,0.684l0,-0.001Zm15.655,3.398c-0.138,-0.131 5.638,6.716 13.513,12.371c0.306,0.381 1.067,2.356 1.188,2.623c-0.032,0.186 -0.205,0.004 -0.205,0.004c-3.977,-2.487 -9.227,-7.42 -14.201,-13.017c0,0 -0.479,-1.241 -0.625,-2.048c0.108,-0.054 0.225,0.017 0.33,0.068l-0.001,0Zm-13.121,2.465c-0.18,0.027 -0.419,0.319 -0.716,0.496c-0.606,0.361 -0.797,0.457 -2.286,-0.026c-0.808,-0.262 -0.939,-0.244 -1.421,0.143c-0.422,0.338 -0.655,0.393 -1.126,0.166c-0.846,-0.41 -1.238,-0.112 -2.022,0.184c-0.746,0.292 -1.003,-0.064 -1.674,-0.229c-0.089,0.001 -0.127,2.931 -0.038,3.025c0.031,0.033 0.699,-0.442 1.077,-0.65c0.651,-0.358 0.557,-0.302 1.508,-0.26c1.402,0.262 2.792,0.174 3.731,-0.225c1.169,-0.358 2.083,-0.291 2.89,0.424c0.49,0.435 1.141,0.364 0.76,-0.436c-0.131,-0.276 -0.428,-1.294 -0.392,-1.672c0.054,-0.566 -0.063,-0.928 -0.257,-0.94l-0.035,-0Zm14.979,2.285c2.658,2.758 5.937,6.967 13.649,11.844c0.402,0.761 0.945,1.774 1.289,2.563c0.032,0.219 -0.018,0.413 -0.216,0.338c-4.765,-3.268 -7.415,-4.855 -14.02,-11.897c-0.411,-0.714 -0.848,-1.93 -1.188,-2.919c0.072,-0.28 0.377,0 0.487,0.072Zm-1.122,1.052l2.949,5.99l-9.932,-0.022c2.524,-1.627 4.933,-3.796 6.983,-5.967l-0,-0.001Zm-16.462,0.135c-1.631,0.701 -1.877,0.847 -3.495,0.42c-0.942,-0.248 -0.684,0.342 -0.202,0.587c1.221,0.618 2.988,0.182 3.643,-0.307c0.432,-0.301 0.728,-0.991 0.053,-0.701l0,0.001Zm-1.674,1.849c-1.708,0.026 -3.319,0.67 -3.439,1.421c-0.023,0.145 0.116,0.308 0.382,0.135c1.157,-0.753 4.031,-0.999 6.204,-0.151c0.352,0.138 0.413,-0.1 0.049,-0.424c-0.813,-0.726 -2.027,-0.999 -3.196,-0.981Zm21.677,2.559c3.215,3.209 6.317,6.162 13.236,10.459c0.498,1.175 1.218,2.582 1.346,2.704c-6.484,-3.404 -13.552,-10.123 -13.552,-10.123c0,0 -1.112,-2.143 -1.368,-3.061c-0.023,-0.31 0.247,-0.055 0.337,0.022l0,-0.001Zm2.214,5c0,0 5.92,5.416 12.668,9.092c0.273,0.284 0.953,2.027 1.174,2.213c0.224,0.189 -0.268,0.188 -0.754,-0.083c-3.531,-1.76 -11.106,-7.392 -11.106,-7.392c-0.727,-1.288 -1.767,-2.628 -1.983,-3.831Zm-70.841,22.63c0.541,-1.253 1.094,-2.646 1.452,-3.783c1.611,0.018 2.404,-0.636 2.976,-1.422c0.816,-0.024 1.441,-0.021 2.554,-0.056c-0.036,-1.19 0.014,-2.873 0.014,-2.873c1.128,-1.256 1.892,-2.706 0.144,-4.926c0,0 -0.071,-1.034 -0.096,-2.798c-0.805,-0.139 -2.612,-0.049 -2.612,-0.049c-1.46,-2.223 -4.05,-1.663 -4.835,-0.001c0,0 -1.164,0.069 -1.963,0.072c-0.016,0.47 -0.154,2.554 -0.154,2.554c0,0 -3.404,2.511 0.127,5.47l-0.048,2.486c0.661,0.057 1.134,0.01 1.997,0.188c0,0 -1.351,3.393 -2.239,5.004c-0.303,0.086 -0.231,-0.103 -0.599,-1.228c-0.442,-1.327 -1.441,-2.777 -2.289,-3.49c-1.149,-0.959 -2.721,-1.257 -3.818,-2.09c-1.057,-0.803 -1.804,-1.839 -2.14,-1.646c-0.11,0.403 -0.231,2.72 0.166,4.209c0.561,2.449 3.817,4.011 6.538,5.182c0.209,0.147 0.395,0.367 0.396,0.448c0.004,0.405 -0.358,0.28 -1.251,0.184c-1.349,-0.146 -1.907,0.253 -2.379,1.5c-0.141,0.307 -0.478,0.837 -0.75,1.187c-0.272,0.351 -0.557,0.693 -0.598,0.842c-0.04,0.149 -0.32,0.905 -0.598,1.537c-0.171,0.389 -0.455,0.796 -0.476,1.371c-0.063,1.755 -0.088,4.113 0.156,5.599c0.18,1.092 1.455,1.719 1.893,1.808c0.674,0.136 0.797,0.875 0.691,1.48c-0.52,2.983 -2.108,4.809 -2.616,3.829c-0.134,-0.258 -0.275,-1.477 -0.313,-1.462c-0.024,0.01 -0.266,1.037 -0.174,1.454c0.099,0.449 0.63,0.78 1.154,0.575c0.776,-0.304 1.387,-1.136 1.869,-3.029c0.197,-0.774 0.384,-1.207 0.719,-1.262c0.613,0.045 1.57,1.413 1.57,1.413c-3.185,2.872 -9.318,8.085 -9.318,8.085l-0.229,-94.065l50.474,0.106c0.281,7.457 -0.556,13.731 -3.032,20.374c-2.934,7.156 -7.486,12.474 -10.97,19.06c-4.206,7.953 -5.552,16.201 -4.12,24.497c-4.297,6.085 -7.917,9.005 -11.354,11.832c0,0 -2.577,-2.931 -4.008,-4.57c0,0 0.604,-0.054 1.31,-0.085c3.265,-0.396 6.799,-0.897 8.163,-4.574c0.194,-0.409 0.113,-0.59 -0.118,-0.647c-2.556,0.383 -4.778,-0.006 -6.227,0.105c-3.545,0.271 -5.044,1.6 -5.044,1.6l0.001,0.003Zm0.389,2.707c0,0 -4.102,-2.109 -4.407,-2.169c-1.788,-0.35 -6.101,-2.782 -6.829,-4.434c-0.095,-0.216 -0.333,-3.231 -0.41,-3.848c0.026,-0.197 0.099,-0.19 0.278,-0.049c0.461,0.343 2.248,1.604 2.908,1.95c2.725,1.432 3.78,2.452 4.446,4.607c0.167,0.54 0.342,1.102 0.441,1.218c0.218,0.255 0.31,0.233 0.584,0.007c1.168,-1.634 1.714,-2.996 2.255,-4.75c0.07,-0.195 0.222,-0.396 0.133,-0.679c-0.213,-0.775 -0.737,-1.777 -0.201,-2.536c-1.707,0.084 -3.341,-1.265 -3.133,-2.617c0.455,-2.505 1.438,-2.053 3.278,-2.419c-0.213,-5.793 4.8,-4.386 4.787,-0.351c5.506,0.502 2.904,6.009 -0.294,5.167c1.268,3.13 -2.542,4.304 -3.078,3.772c-0.215,1.011 -1.666,4.269 -1.975,5.236c4.08,-3.128 10.644,-1.739 11.595,-1.94c-2.37,5.363 -10.119,4.058 -10.377,3.833l-0,0.001Zm73.466,-19.744c1.037,0.863 9.821,6.807 11.443,6.941c0,0 0.777,0.943 1.417,1.8c0.597,0.799 0.817,0.925 0.886,1.086c0.068,0.16 -0.225,0.152 -0.275,0.147c-3.953,-1.859 -7.974,-3.814 -11.391,-6.903c-0.462,-0.424 -0.565,-0.616 -0.792,-0.94c-0.301,-0.431 -1.195,-1.97 -1.289,-2.131l0.001,0Zm2.912,4.794c4.018,2.442 7.433,4.811 11.095,6.084c0.522,0.212 0.789,0.226 1.049,0.424c0.26,0.198 1.376,0.945 1.639,1.113c1.67,1.06 1.842,1.01 1.427,1.187c-0.459,0.197 -3.392,-0.73 -5.871,-1.721c-4.396,-1.758 -5.951,-2.755 -7.541,-4.307c-0.358,-0.401 -2.029,-2.562 -1.799,-2.782l0.001,0.001Zm-80.107,13.623c0.339,-0.008 0.88,0.22 1.445,0.688c0.604,0.501 2.087,1.55 2.699,1.834l0.411,0.182l3.952,4.852l-10.174,8.946c0,0 -0.826,-0.914 -1.089,-1.22c-0.248,-0.289 -0.177,-0.53 0.133,-0.857c0.249,-0.263 0.267,-0.833 0.226,-1.113c-0.062,-0.415 -0.052,-0.883 0.434,-1.27c0.392,-0.312 0.453,-0.859 0.434,-1.011c-0.015,-0.121 0.212,-0.521 0.552,-0.789c0.714,-0.563 0.929,-1.249 0.688,-2.055c-0.101,-0.338 -0.155,-0.426 0.253,-0.722c0.727,-0.524 0.908,-1.019 0.962,-1.785c0.009,-0.121 -0.021,-0.25 -0.038,-0.346c-0.144,-0.814 0.521,-0.608 1.067,0.413c0.297,0.557 0.382,1.471 0.532,2.51c0.176,1.226 0.296,1.56 0.358,1.386c0.353,-0.989 -0.063,-4.704 -1.108,-5.208c-1.528,-0.737 -2.804,-2.239 -2.421,-2.83c0.133,-0.205 0.156,-0.135 1.087,0.33c0.546,0.272 1.05,0.494 1.126,0.496c1.078,0.037 0.424,-0.462 0.073,-0.514c-0.422,-0.063 -1.683,-0.893 -1.831,-1.183c-0.246,-0.484 -0.11,-0.729 0.229,-0.737l0.001,-0.001Zm-2.602,0.639c0.994,-0.012 1.185,0.276 1.195,1.203c0.006,0.546 0.194,0.967 0.986,2.055c0.323,0.444 0.539,0.784 0.518,0.958c-0.035,0.287 -0.131,-0.01 -1.226,-0.151c-0.389,-0.049 -0.587,-0.057 -0.722,0.162c-0.377,0.605 -1.176,-0.025 -1.667,-0.917c-1.172,-2.126 -0.758,-3.291 0.917,-3.311Zm18.941,1.281l10.816,14.32l-1.22,1.025l-10.856,-14.125l1.26,-1.219Zm-1.808,0.879l1.159,2.116c0,0 -3.351,3.098 -4.233,3.971c-7.12,6.237 -23.194,20.397 -23.194,20.397l-0.216,-2.848l26.485,-23.636Zm-19.523,0.383c0.211,0.006 0.453,0.295 0.796,0.861c0.297,0.491 0.933,1.473 1.611,2.149c1.318,1.313 1.445,1.195 0.375,1.319c-0.426,0.049 -0.564,-0.006 -0.823,0.695c-0.785,1.059 -3.104,-2.735 -2.56,-4.187c0.212,-0.567 0.389,-0.843 0.601,-0.838Zm3.773,2.048c0.196,-0.01 0.453,0.069 0.754,0.267c0.574,0.255 0.612,0.403 0.518,0.995c-0.091,0.567 -0.49,0.714 -1.275,-0.033c-0.596,-0.608 -0.496,-1.203 0.004,-1.229Zm17.263,0.35l1.271,1.774l-28.846,25.233l0.007,-2.904c0.703,0.098 19.2,-17.288 27.568,-24.104l0,0.001Zm-22.37,0.288c0.077,-0.018 0.197,0.268 0.518,0.789c0.652,1.06 1.249,1.758 1.932,2.315c0.645,0.526 0.717,0.819 0.275,0.823c-0.189,0.002 -0.448,0.217 -0.584,0.47c-0.273,0.508 -0.297,0.388 -0.719,0.12c-0.603,-0.381 -1.207,-0.958 -1.449,-1.714c-0.227,-0.712 -0.253,-1.795 -0.066,-2.585c0.032,-0.138 0.059,-0.21 0.093,-0.218l0.001,-0Zm4.554,2.014c0.735,-0.028 1.264,0.898 0.778,1.646c-0.27,0.285 -0.514,0.422 -1.053,0.079c-0.71,-0.453 -0.839,-1.15 -0.257,-1.541c0.182,-0.122 0.362,-0.178 0.532,-0.184Zm-4.731,2.003c0.155,-0.008 0.433,0.233 0.9,0.752c0.359,0.397 0.981,0.737 1.229,0.887c0.559,0.337 0.585,0.455 0.281,0.725c-0.13,0.115 -0.555,0.123 -0.671,0.488c-0.331,1.046 -1.732,-0.17 -1.865,-1.664c-0.068,-0.759 -0.074,-1.178 0.125,-1.187l0.001,-0.001Zm3.523,0.124c0.92,0.041 1.355,1.203 0.622,1.774c-0.4,0.311 -1.407,-0.238 -1.508,-0.808c-0.065,-0.367 0.536,-0.982 0.886,-0.966l0,0.001Zm21.51,0.863c0.534,0 0.966,0.467 0.966,1.045c0,0.577 -0.432,1.045 -0.966,1.045c-0.534,0 -0.966,-0.467 -0.966,-1.045c0,-0.577 0.432,-1.045 0.966,-1.045Zm-2.887,0.432c0.534,0 0.966,0.467 0.966,1.045c0,0.577 -0.432,1.045 -0.966,1.045c-0.534,0 -0.966,-0.467 -0.966,-1.045c0,-0.577 0.432,-1.045 0.966,-1.045Zm-19.345,1.395l0.184,0c0.886,0.047 0.933,0.96 0.406,1.45c-0.315,0.293 -0.6,0.386 -1.007,0.033c-0.728,-0.63 -0.459,-1.431 0.417,-1.484l0,0.001Zm21.496,1.528c0.534,0 0.966,0.467 0.966,1.045c0,0.577 -0.432,1.045 -0.966,1.045c-0.534,0 -0.97,-0.467 -0.97,-1.045c0,-0.577 0.436,-1.045 0.97,-1.045Zm84.786,0.061l0.046,2.642l-34.107,30.691l-1.154,-1.63l35.215,-31.702Zm-86.746,0.225l-2.521,6.126l-0.758,-1.579l-1.885,-0.001l0.579,-1.827l-1.11,-1.461l5.696,-1.257Zm53.672,25.476l4.488,-3.893c-1.932,-10.545 5.78,-14.741 13.104,-11.677l4.557,-4.202c-8.456,-7.702 -28.338,-2.478 -22.149,19.771l-0.001,0Zm-60.716,-20.61c0.534,0 0.966,0.467 0.966,1.045c0,0.577 -0.432,1.045 -0.966,1.045c-0.534,0 -0.966,-0.467 -0.966,-1.045c0,-0.577 0.432,-1.045 0.966,-1.045Zm-2.932,0.256c0.534,0 0.935,0.434 0.935,1.011c0,0.577 -0.401,1.081 -0.935,1.081c-0.534,0 -0.966,-0.471 -0.966,-1.049c0,-0.577 0.432,-1.045 0.966,-1.045l0,0.001Zm15.605,2.121l-4.449,3.854c1.15,10.096 -3.391,15.238 -13.151,11.777l-4.721,4.051c12.754,9.49 29.444,-2.743 22.322,-19.681Zm-13.694,0.912c0.534,0 0.966,0.467 0.966,1.045c0,0.577 -0.432,1.045 -0.966,1.045c-0.534,0 -0.966,-0.467 -0.966,-1.045c0,-0.577 0.432,-1.045 0.966,-1.045Zm93.599,0.264c0.534,0 0.97,0.467 0.97,1.045c0,0.577 -0.436,1.045 -0.97,1.045c-0.534,0 -0.966,-0.467 -0.966,-1.045c0,-0.577 0.432,-1.045 0.966,-1.045Zm-95.597,0.25l-2.845,6.087l-0.709,-1.833l-1.91,0.029l0.617,-2.125l-1.194,-1.092l6.04,-1.066Zm91.777,0.641l0.885,1.61l1.868,0.049l-0.702,1.533l1.349,1.504l-6.084,1.617l2.686,-6.314Zm-98.564,4.421c0.534,0 0.969,0.467 0.97,1.045c0,0.577 -0.436,1.045 -0.97,1.045c-0.534,0 -0.966,-0.467 -0.966,-1.045c0,-0.577 0.432,-1.045 0.966,-1.045Zm-2.779,0.116c0.534,0 0.969,0.467 0.97,1.045c0,0.577 -0.436,1.045 -0.97,1.045c-0.534,0 -0.966,-0.467 -0.966,-1.045c0,-0.577 0.432,-1.045 0.966,-1.045Zm96.639,0.621c0.534,0 0.966,0.467 0.966,1.045c0,0.577 -0.432,1.045 -0.966,1.045c-0.534,0 -0.966,-0.467 -0.966,-1.045c0,-0.577 0.432,-1.045 0.966,-1.045Zm9.769,0.162l0.042,2.32c-8.899,8.496 -27.612,24.895 -27.612,24.895l-1.165,-1.617c0,0 19.038,-16.829 28.734,-25.598Zm-104.473,2.262c0.534,0 0.966,0.467 0.966,1.045c0,0.577 -0.432,1.049 -0.966,1.049c-0.534,0 -0.966,-0.471 -0.966,-1.049c0,-0.577 0.432,-1.045 0.966,-1.045Zm96.68,0.251c0.534,0 0.966,0.467 0.966,1.045c0,0.577 -0.432,1.049 -0.966,1.049c-0.534,0 -0.966,-0.471 -0.966,-1.049c0,-0.577 0.432,-1.045 0.966,-1.045Zm-2.734,0.188c0.534,0 0.966,0.467 0.966,1.045c0,0.577 -0.432,1.049 -0.966,1.049c-0.534,0 -0.969,-0.471 -0.97,-1.049c0,-0.577 0.436,-1.045 0.97,-1.045Zm10.795,0.37l-0.081,2.953c-8.623,7.953 -26.262,23.749 -26.2,23.759l-1.332,-1.99c0,0 19.335,-18.016 27.613,-24.722l0.001,0Zm-106.514,-0.434l-2.661,6.492l-1.148,-1.748l-1.679,-0.123l0.4,-1.756l-1.542,-1.134l6.63,-1.731Zm92.248,2.564l1.698,-0.349l-0.297,1.88l1.193,1.355l-6.257,1.488l3.024,-6.068l0.638,1.694Zm9.349,31.63c1.268,2.053 1.188,4.295 0.657,4.639c-0.559,-0.341 -1.046,-0.933 -1.625,-1.203c-2.915,-1.36 -5.243,-2.477 -5.659,-4.477c-1.588,-4.526 5.57,-0.666 6.627,1.042l-0.001,0Zm-15.321,-12.022l9.807,-8.637c0,0 1.503,0.839 1.788,1.219c0.102,0.419 -0.17,0.548 -0.57,0.938c-0.183,0.254 -0.298,0.499 -0.309,1.05c-0.011,0.592 0.17,0.858 -0.052,1.12c-0.37,-0.021 -0.665,0.502 -0.649,0.925c0.012,0.323 -0.378,0.68 -0.607,0.923c-0.406,0.432 -0.524,0.521 -0.785,1.983c-0.026,0.147 -0.017,0.526 -0.208,0.724c-0.567,0.055 -0.978,1.557 -1.237,1.652c-0.414,-0.029 -1.072,-0.576 -1.232,-1.384c-0.105,-0.526 -0.076,-1.546 0.039,-2.204c0.137,-0.783 0.199,-1.492 0.153,-1.68c-0.106,-0.436 -0.373,-0.168 -0.368,0.444c0.001,0.248 -0.087,0.993 -0.233,1.695c-0.146,0.704 -0.543,1.638 -0.364,2.192c0.266,0.827 1.245,1.177 1.687,1.614c1.161,1.152 1.414,1.714 1.546,1.969c0.928,1.836 0.931,2.149 0.699,3.531c-0.134,0.796 -0.85,0.659 -1.282,0.337c0,0 -2.758,-2.171 -3.958,-3.249c-1.818,-1.633 -3.095,-3.303 -3.866,-5.16l-0.001,-0.001Zm3.721,5.936c1.052,0.46 3.791,2.611 3.791,2.611l-2.494,5.614c0.454,0.879 0.637,3.063 0.637,3.063c3.155,-0.261 4.864,5.491 -0.05,4.96c0.561,3.556 -4.734,6.342 -4.59,-0.03c-5.515,0.463 -3.663,-6.295 -0.264,-5.027c-0.102,-2.865 1.663,-3.235 2.909,-3.939c1.021,-1.25 1.647,-4.077 1.647,-4.077l-0.249,-0.862c-1.046,1.977 -5.5,2.544 -10.393,1.496c1.325,-3.396 5.345,-3.3 9.058,-3.807Zm-9.732,4.273c-0.166,0.677 -0.171,0.669 0.584,0.586c0.382,-0.042 1.916,-0.038 2.987,0.007c1.969,0.166 5.069,0.181 6.623,-1.101c0.301,-0.311 0.466,-0.289 0.523,-0.119c0.133,0.827 -1.377,3.55 -1.377,3.55l-2.492,1.49c0,0 -1.02,0.052 -2.284,0.019l-0.022,2.425c-0.99,0.633 -2.689,3.347 0.041,5.428l-0.09,2.641l2.407,0.048c1.597,1.654 2.898,1.647 4.365,0.088l2.775,0.002l-0.011,-2.853c1.369,-1.19 1.563,-3.209 0.164,-4.821l-0.035,-2.895l-2.136,0.014c0,0 -0.442,-0.37 -0.454,-0.664c-0.001,-0.19 1.559,-3.444 1.858,-3.908c0.388,-0.604 0.283,-0.259 0.904,1.136c0.889,1.995 1.768,2.809 4.02,3.987c2.01,1.051 2.728,1.542 3.311,2.144c0.464,0.479 0.738,0.328 0.917,-0.387c0.388,-1.591 0.268,-3.183 -0.542,-4.639c-1.709,-3.074 -4.687,-3.216 -5.161,-3.927c-0.062,-0.17 0.544,-0.366 1.196,-0.681c1.127,-0.741 2.777,-2.982 2.989,-3.881c-0.038,-0.433 0.226,-1.799 0.421,-2.101c0.225,-0.537 0.25,-0.788 0.24,-2.228c-0.202,-0.823 -0.018,-1.893 0.077,-2.262c0.102,-0.748 -0.265,-1.629 -0.787,-2.711c-0.196,-1.004 -0.15,-0.743 0.451,-3.006c0.098,-0.366 0.773,-3.518 -0.091,-3.734l0.115,0.177c0.145,0.316 0.225,1.677 0.093,2.063c-0.052,0.153 -0.15,0.548 -0.219,0.879c-0.523,2.533 -0.833,3.169 -1.307,2.614c-0.113,-0.132 -0.546,-0.32 -0.878,-0.559c-0.629,-0.452 -0.575,-0.673 -0.42,-1.518c0.038,-0.128 0.287,-1.291 0.261,-1.255c-0.136,0.4 -0.227,1.43 -0.657,1.672c-0.23,0.058 -0.548,-0.163 -1.146,-0.722c-0.228,-0.213 -0.719,-0.585 -0.719,-0.585c0,0 7.088,-6.454 9.723,-8.593l-0.023,95.582l-50.1,0.023c-0.627,-5.92 1.019,-13.753 3.744,-21.599c1.684,-4.849 4.103,-8.446 6.832,-12.787c5.231,-8.277 9.187,-16.68 7.661,-27.334c-0.2,-1.581 -0.4,-2.338 -0.331,-2.763c0.635,-1.29 3.157,-5.203 5.001,-6.831c2.705,-2.39 6.469,-5.962 6.771,-5.75c0.898,1.875 1.962,3.393 3.37,4.537c0.248,0.291 0.254,0.546 -0.317,0.676c-3.734,-0.037 -7.577,0.851 -8.825,4.424l-0.001,-0.001Zm-86.999,-27.155c0.534,0 0.966,0.467 0.966,1.045c0,0.577 -0.432,1.045 -0.966,1.045c-0.534,0 -0.966,-0.467 -0.966,-1.045c0,-0.577 0.432,-1.045 0.966,-1.045Zm93.661,0.237c0.534,0 0.966,0.467 0.966,1.045c0,0.577 -0.432,1.045 -0.966,1.045c-0.534,0 -0.966,-0.467 -0.966,-1.045c0,-0.577 0.432,-1.045 0.966,-1.045Zm2.104,2.866c0.534,0 0.966,0.467 0.966,1.045c0,0.577 -0.432,1.045 -0.966,1.045c-0.534,0 -0.966,-0.467 -0.966,-1.045c0,-0.577 0.432,-1.045 0.966,-1.045Zm-3.125,0.444c0.534,0 0.966,0.467 0.966,1.045c0,0.577 -0.432,1.045 -0.966,1.045c-0.534,0 -0.966,-0.467 -0.966,-1.045c0,-0.577 0.432,-1.045 0.966,-1.045Zm-3.451,2.381l1.746,-0.093c-0.219,0.679 -0.336,1.379 -0.461,2.083l1.422,1.13l-6.153,1.132l2.652,-5.898l0.794,1.646Zm-4.198,17.202l-10.362,-14.475l1.25,-1.093l10.446,14.316l-1.333,1.252Zm-1.265,-14.063c0.534,0 0.966,0.467 0.966,1.045c0,0.577 -0.432,1.045 -0.966,1.045c-0.534,0 -0.966,-0.467 -0.966,-1.045c0,-0.577 0.432,-1.045 0.966,-1.045Zm21.764,1.621c0.84,0.706 0,1.697 -0.803,1.306c-0.696,-0.318 -0.644,-1.082 -0.095,-1.388c0.342,-0.176 0.604,-0.132 0.898,0.082Zm1.118,0.674c0.861,0.015 1.814,2.225 1.639,2.874c-0.257,0.756 -0.493,0.783 -1.709,-0.33c-1.201,-1.099 -1.218,-1.145 -0.733,-1.74c0.269,-0.338 0.399,-0.784 0.802,-0.804l0.001,-0Zm-20.497,0.403c0.534,0 0.966,0.467 0.966,1.045c0,0.577 -0.432,1.048 -0.966,1.049c-0.534,0 -0.966,-0.471 -0.966,-1.049c0,-0.577 0.432,-1.045 0.966,-1.045Zm-2.995,0.402c0.534,0 0.966,0.467 0.966,1.045c0,0.577 -0.432,1.045 -0.966,1.045c-0.534,0 -0.966,-0.467 -0.966,-1.045c0,-0.577 0.432,-1.045 0.966,-1.045Zm21.212,0.745c0.953,0.153 1.203,0.932 0.764,1.511c-0.596,0.784 -1.932,0.072 -1.615,-0.861c0.144,-0.424 0.492,-0.643 0.851,-0.65Zm1.71,1.176c0.373,-0.034 0.935,0.523 1.55,1.449c0.691,1.04 0.747,1.376 0.551,2.01c-0.286,0.925 -0.465,1.094 -1.085,0.193c-0.234,-0.339 -0.777,-1.136 -1.165,-1.576c-0.827,-0.938 -0.957,-0.699 -0.463,-1.415c0.229,-0.332 0.387,-0.64 0.611,-0.661l0.001,0Zm-2.241,1.093c0.856,0.478 0.939,1.101 0.432,1.541c-0.596,0.352 -1.646,-0.065 -1.85,-0.703c-0.298,-0.933 0.615,-1.406 1.417,-0.838l0.001,0Zm1.451,1.377c0.484,-0.033 0.883,0.507 1.475,1.543c1.009,1.762 1.064,2.355 0.204,3.516c-0.618,0.835 -0.681,0.88 -1.287,-0.452c-0.495,-1.088 -1.436,-2.363 -2.306,-3.127c-0.364,-0.319 -0.492,-0.766 -0.229,-0.796c0.077,-0.009 0.399,-0.025 0.716,-0.037c0.465,-0.018 0.634,-0.087 0.889,-0.357c0.169,-0.179 0.349,-0.276 0.538,-0.289l0,-0.001Zm-3.477,1.375c0.451,-0.024 1.033,0.241 1.466,0.785c0.491,0.558 0.433,1.07 -0.532,1.172c-0.434,0.184 -1.617,-0.655 -1.623,-1.218c-0.005,-0.472 0.29,-0.72 0.688,-0.741l0.001,0.001Zm2.273,2.043l0.069,0c0.405,0.021 0.614,0.444 1.069,1.432c0.699,1.517 0.497,2.343 -0.71,3.014c-0.819,0.456 -1.444,0.592 -1.55,0.071c-0.031,-0.151 -0.031,-0.589 -0.099,-1.013c-0.09,-0.565 -0.21,-1.154 -0.673,-1.908c-0.738,-1.203 -0.869,-1.631 -0.059,-1.276c0.428,0.188 0.895,0.166 1.386,-0.113c0.216,-0.123 0.4,-0.197 0.566,-0.207Zm-4.096,2.439c-0.281,-0.006 -0.462,0.18 -0.386,0.676c0.255,0.135 0.658,0.01 0.962,0.127c0.41,0.16 0.663,0.881 1.101,0.763c0.046,-0.608 -1.059,-1.553 -1.678,-1.567l0,0.001Zm-83.61,10.575c-2.257,-1.163 -7.851,-3.856 -10.544,-3.895c-4.996,-1.517 -5.331,-0.828 -7.083,-1.313c9.273,-2.602 15.655,2.4 17.993,4.83c1.061,1.144 0.483,0.815 -0.365,0.378Zm5.905,23.647c5.306,9.957 10.251,21.187 18.549,37.819l-0.797,0.269l-31.642,0.061c1.567,-18.372 -7.611,-35.877 -8.232,-35.191c7.167,0.143 13.117,-1.353 14.374,-4.21l-1.022,-0.317c-4.171,3.894 -10.214,4.073 -14.383,2.869c0.095,-9.572 -0.403,-19.684 -0.128,-29.254c4.928,-0.397 8.78,1.558 11.512,5.454c4.592,6.549 7.706,14.876 11.768,22.498l0.001,0.001Zm-14.511,-26.524c1.269,-0.105 8.195,2.978 11.294,5.28c0.861,0.963 2.117,2.636 2.119,2.799c0.004,0.445 -0.607,-0.104 -3.599,-1.95c-2.264,-1.379 -4.614,-2.478 -6.902,-3.533l-0.314,-0.145c0,0 -0.169,-0.211 -0.46,-0.455c-0.815,-0.682 -2.398,-1.891 -2.137,-1.996Zm3.367,3.491c-0.068,-0.014 6.869,2.704 12.389,7.46c0.734,0.632 1.635,2.991 1.635,2.991c-0.493,-1.003 -9.212,-6.646 -12.273,-7.938l-1.751,-2.513Zm2.446,3.609c0.378,-0.245 10.524,6.233 12.011,7.906c0.674,0.557 2.253,3.266 2.258,3.811c0.005,0.485 -0.488,0.066 -1.397,-0.842c-4.673,-4.72 -11.422,-8.277 -11.478,-8.199l-1.395,-2.676Zm1.883,3.764c4.765,2.18 10.748,7.424 13.769,10.545c0.755,0.808 1.294,1.98 1.397,2.525c0.063,0.338 -0.094,0.315 -0.156,0.496c-3.914,-4.86 -12.517,-10.408 -13.658,-10.842c0.009,0.307 -0.946,-1.884 -1.352,-2.724Zm15.819,15.145c0.548,0.604 1.417,2.725 1.223,2.984c-0.096,0.127 -0.086,0.061 -0.316,-0.113c-1.252,-1.348 -7.686,-7.523 -13.055,-10.987c-0.504,-0.272 -2.195,-3.156 -1.836,-3.212c2.806,0.99 10.832,7.922 13.984,11.328Zm-11.609,-6.892c0.093,0.007 0.261,0.136 0.549,0.308c4.937,2.946 12.092,10.363 13.449,12.146c0.308,0.549 0.794,1.557 0.758,2.175c-0.062,0.486 -0.241,0.073 -2.237,-2.051c-3.208,-3.397 -6.897,-6.686 -10.807,-9.447c-0.752,-0.559 -0.608,-0.63 -1.154,-1.657c-0.547,-1.031 -0.763,-1.489 -0.559,-1.473l0.001,-0Zm31.573,0.113c3.525,0.108 4.904,2.995 7.075,8.316c1.777,5.243 2.513,10.046 2.595,13.87c0.005,0.256 -0.426,0.038 -0.622,-0.019c-0.944,-0.274 -2.119,-0.53 -3.481,-0.158c-1,0.273 -1.951,0.243 -0.924,-0.485c0.331,-0.235 1.228,-1.133 1.706,-1.454c0.967,-0.651 0.379,-0.643 -0.58,-0.131l-1.511,0.955c-0.185,0.048 -0.07,-0.61 0.107,-1.082c1.025,-2.728 1.335,-4.342 -0.191,-4.848c-0.413,-0.137 -0.97,-0.55 -1.233,-0.827c-0.21,-0.221 -0.389,-1.103 -0.455,-1.139c-0.071,-0.037 -0.119,0.804 -0.118,0.932c0.004,0.438 0.524,1.326 1.15,1.811c1.062,0.823 1.271,1.052 0.695,3.002c-0.808,2.733 -0.981,3.402 -1.129,4.036c-0.085,0.365 -0.25,0.984 -0.333,1.386c-0.32,1.549 -0.281,2.903 -0.222,4.19c0.349,2.876 3.216,4.296 7.063,2.698c0.364,-0.153 0.515,-0.015 0.515,-0.015c-3.065,3.372 -6.505,5.527 -8.509,12.339c-2.578,-5.62 -6.23,-10.024 -12.301,-11.789l-0.09,-1.174c2.117,1.098 6.223,2.592 8.829,0.913c1.395,-1.031 0.971,-1.695 -0.722,-0.984c-2.016,0.847 -5.658,0.748 -7.476,-0.361c-0.37,-0.225 -0.747,-0.03 -0.854,0.008c-0.095,-0.661 -0.97,-3.15 -0.841,-4.086c-0.075,-0.131 0.554,-0.137 0.674,0.037c0.503,0.726 3.057,2.889 5.711,2.72c1.319,-0.084 2.404,-0.518 3.551,-1.825c0.096,-0.092 0.562,-0.158 0.626,-0.236c0.102,-0.124 0.028,-0.31 0.024,-0.376c-0.029,-0.1 -0.2,-0.373 -0.313,-0.68c-0.148,-0.268 -0.178,-0.549 -0.153,-0.765c0.003,-0.18 0.113,-0.275 0.2,-0.401c0.099,-0.241 0.071,-0.547 0.017,-0.71c-0.236,-0.172 -0.207,-0.493 -0.08,-0.643c0.359,-0.439 -3.09,-3.845 -3.766,-3.837c-0.244,0.003 -0.1,0.489 0.396,0.846c1.753,1.26 3.031,2.904 2.741,3.119c-0.223,0.166 -1.009,-0.197 -1.808,-0.401c-1.604,-0.407 -3.53,-0.666 -5.619,0.964c-0.782,0.694 -2.848,0.799 -2.848,0.799c-0.027,-1.218 -4.782,-14.812 -4.791,-14.221c1.73,-2.182 7.166,-7.348 12.614,-9.575c1.676,-0.594 3.475,-0.898 4.683,-0.722Zm-20.653,3.043l9.888,0.165c-2.486,1.354 -7.003,6.209 -7.003,6.209c-1.292,-2.813 -1.687,-4.216 -2.885,-6.375l0,0.001Zm-8.548,1.41c0.737,0.005 8.586,6.923 9.702,8.557c0.135,0.197 0.93,1.105 1.768,2.014c2.03,2.201 2.867,3.474 2.876,4.382c0.004,0.428 -0.358,0.15 -0.9,-0.496c-4.065,-4.887 -6.71,-7.538 -11.735,-11.285c-0.571,-0.33 -2.341,-2.88 -1.74,-3.164l0.028,-0.007l0,-0.001Zm26.848,1.274c-0.221,-0.008 -0.185,0.221 -0.064,0.432c1.246,1.191 4.534,1.138 5.668,0.176c1.028,-0.873 -0.32,-0.413 -0.74,-0.217c-0.983,0.456 -2.036,0.405 -3.404,0.011c-0.798,-0.229 -1.238,-0.394 -1.459,-0.402l-0.001,0Zm3.032,1.939c-1.15,0.011 -2.352,0.385 -2.084,0.842c0.098,0.166 0.412,0.479 1.164,0.037c1.085,-0.581 3.314,0.181 3.38,0.199c0.227,0.065 -0.741,-0.69 -1.067,-0.846c-0.359,-0.171 -0.87,-0.238 -1.393,-0.233l0,0.001Zm-27.709,1.293c4.218,2.791 9.356,8.378 12.44,12.367c0.513,0.687 0.884,1.532 0.889,2.029c0.007,0.717 -0.135,0.319 -2.935,-2.751c-2.197,-2.431 -5.512,-5.741 -7.708,-7.523c-1.319,-1.04 -1.554,-1.175 -2.175,-2.409c-0.582,-1.157 -0.793,-1.731 -0.511,-1.714l0,0.001Zm26.278,0.932c-0.793,0.408 -1.845,0.321 -2.87,-0.06c-0.928,-0.345 -0.71,-0.05 -0.358,1.045c0.16,0.498 0.259,1.203 0.261,1.308c0.003,0.244 0.002,0.26 0.657,-0.135c0.571,-0.345 0.691,-0.464 1.907,-0.158c1.237,0.311 1.257,0.196 1.837,-0.131c0.506,-0.285 0.611,-0.456 0.958,-0.306c0.678,0.295 1.445,0.421 2.315,-0.073c0.666,-0.379 0.883,-0.123 1.192,0.045c0.419,0.228 0.581,0.083 0.417,-0.368c-0.066,-0.18 -0.188,-0.952 -0.191,-1.195c-0.007,-0.463 -0.112,-0.88 -0.292,-0.781c-0.665,0.362 -1.204,0.746 -1.839,0.733c-1.163,-0.023 -2.183,-0.779 -3.994,0.078l0,-0.001Zm-51.4,0.952c10.513,14.168 8.654,34.592 8.305,34.426l-8.239,0.039l-0.066,-34.465Zm27.353,2.864c4.199,3.185 9.196,8.737 11.967,12.576c0.471,0.663 0.088,0.872 0.323,1.672c0.086,0.297 -0.378,-0.141 -1.712,-1.691c-1.662,-1.931 -4.395,-4.835 -6.194,-6.52c-1.971,-1.846 -2.54,-2.31 -2.96,-2.935c-0.331,-0.522 -1.681,-3.03 -1.423,-3.103Zm23.633,1.303l-0.132,0.004c-1.494,0.076 -2.253,1.887 -0.972,3.168c0.481,0.481 1.246,0.766 1.243,0.507c-0.001,-0.061 -0.241,-0.323 -0.41,-0.462c-1.067,-0.887 -0.958,-2.27 0.257,-2.285c0.421,-0.005 0.448,0.157 1.421,0.913c1.145,0.889 2.496,0.89 2.48,-0.004c-0.012,-0.657 -0.239,-1.33 -1.261,-1.222c-0.269,0.029 -0.627,0.06 -0.942,-0.026c-0.301,-0.082 -0.559,-0.281 -0.677,-0.338c-0.356,-0.171 -0.696,-0.25 -1.007,-0.256Zm-20.904,4.171c3.213,2.333 7.628,7.609 9.885,10.721c0.517,0.729 0.551,1.535 0.342,1.969c-0.049,0.085 -0.445,-0.18 -0.445,-0.18c-2.61,-3.324 -5.568,-6.345 -8.473,-9.413c0,0 -1.726,-3.002 -1.31,-3.096l-0,-0.001Zm31.143,5.047l-0.693,0.373c-1.052,-1.705 -2.014,-1.729 -2.82,0.264l-0.517,-0.141c-0.385,-0.459 1.385,-4.792 4.03,-0.496Zm-0.155,-1.454c0.289,0.011 0.796,0.181 0.914,0.5c0.132,0.295 -0.016,0.628 -0.414,0.612c-0.06,-0.002 -0.445,-0.512 -0.635,-0.824c-0.141,-0.19 -0.08,-0.295 0.135,-0.288Zm-11.799,2.086l-0.777,0.039c-1.479,-2.103 -2.585,-0.691 -3.249,0.186l-0.832,-0.122c0.133,-2.309 3.907,-3.114 4.857,-0.103l0,-0.001Zm7.557,-1.796c0.117,0.002 0.232,0.026 0.34,0.072c-0.306,0.503 -0.359,0.921 -0.427,1.375c-0.302,0.135 -0.732,0.417 -1.053,0.057c-0.596,-0.585 0.321,-1.52 1.14,-1.503l0,-0.001Zm-12.134,0.236c0.367,0.002 0.257,-0.025 0.098,0.197c-0.16,0.225 -0.381,0.624 -0.498,0.981c-0.049,0.248 -0.088,0.338 -0.303,0.346c-0.411,0.014 -1.242,-0.144 -1.237,-0.138c-0.317,-0.323 0.992,-1.352 1.94,-1.386Zm4.699,0.294c0.245,-0.032 0.188,0.346 0.109,0.495c-0.155,0.197 -0.216,0.262 -0.303,0.016c-0.042,-0.119 -0.105,-0.213 -0.158,-0.283c-0.121,-0.168 -0.107,-0.177 0.043,-0.205l0.31,-0.022l-0.001,0Zm12.694,1.679c0.905,-0.025 0.3,1.635 -0.958,2.037c-1.39,0.762 -2.984,0.58 -4.606,-0.42c-0.925,-0.571 -1.206,-1.172 -0.4,-0.932c3.037,0.905 3.776,0.737 5.608,-0.545c0.109,-0.1 0.225,-0.125 0.356,-0.139l0,-0.001Zm-29.227,-0.359c3.024,2.771 5.3,5.911 7.719,8.803c0.482,0.644 0.708,1.266 0.615,1.688c-0.116,0.524 -1.108,-0.725 -1.108,-0.725c0.025,0.012 -5.903,-6.833 -5.903,-6.833c0,0 -1.505,-2.918 -1.322,-2.932Zm9.037,0.957c0.21,0.008 0.626,0.113 1.299,0.301c2.909,0.954 3.789,0.919 5.461,0.088c1.066,-0.529 1.506,-0.453 1.05,0.343c-0.839,1.465 -3.803,1.626 -6.029,0.809c-0.589,-0.217 -1.107,-0.596 -1.674,-1.056c-0.304,-0.342 -0.378,-0.495 -0.107,-0.485l0,-0.001Zm13.415,0.97c0.174,-0.012 0.499,0.204 0.894,0.446c2.437,1.495 4.236,1.221 5.738,0.218c0.272,-0.268 0.419,-0.139 0.455,0.12c0.128,0.91 0.166,1.565 -0.219,2.003c-0.224,0.255 -0.604,0.37 -1.178,0.579c-2.359,0.858 -5.231,0.245 -5.781,-1.67c-0.179,-0.984 -0.292,-1.67 0.091,-1.697l0,0.001Zm-19.337,4.107l0.028,0c0.171,0.028 0.564,0.4 1.185,1.161c3.244,3.98 5.038,6.267 4.711,7.418c-0.03,0 -0.051,0.248 -0.188,0.12c-1.784,-1.666 -3.241,-3.488 -4.325,-5.392c-1.189,-2.087 -1.677,-3.282 -1.411,-3.307l0,-0.001Zm26.149,2.8c-2.737,2.264 -6.057,7.653 -6.355,10.307c-0.057,0.507 -0.007,0.888 -0.18,1.071c-0.138,0.146 -0.448,0.159 -0.861,0.072c-0.254,-0.05 -0.194,-0.08 -0.253,-0.391c-0.236,-1.214 0.841,-4.273 3.068,-7.876c1.168,-1.891 3.822,-4.445 4.564,-4.461c0.495,0.221 0.014,1.303 0.021,1.279l-0.001,-0.001Zm-20.268,-1.23c0.194,-0.006 0.493,0.104 0.91,0.297c2.457,1.14 3.374,1.555 4.964,2.958c2.964,2.614 6.257,8.821 5.291,9.402c-0.425,0.255 -0.726,0.094 -0.899,-0.483c-0.032,-0.105 -0.342,-0.975 -0.713,-1.712c-1.987,-3.949 -4.57,-6.666 -8.212,-8.586c-1.345,-0.71 -1.482,-0.631 -1.584,-1.225c-0.077,-0.446 -0.005,-0.643 0.243,-0.65l0.001,-0.001Zm20.228,2.281c0.246,-0.022 0.306,0.463 0.222,1.441c-0.068,0.797 -0.112,0.78 -0.933,1.715c-1.313,1.15 -2.866,3.851 -3.585,6.603c0.001,0.096 -0.067,0.305 -0.191,0.42c-0.338,0.314 -0.764,0.16 -1.056,0.154c-0.21,-0.121 -0.152,-0.619 -0.115,-0.898c0.601,-2.497 2.08,-5.565 4.398,-8.26c0.652,-0.758 1.044,-1.156 1.261,-1.176l0,0.002Zm-19.718,0.072c1.301,-0.033 5.924,3.704 7.795,6.975c1.223,2.137 1.553,3.014 1.271,3.326c-0.149,0.165 -0.806,0.191 -1.15,0.045c-0.313,-0.133 -0.432,-0.647 -1.018,-1.837c-1.528,-3.104 -3.728,-5.354 -6.11,-6.542c-0.443,-0.221 -0.681,-0.362 -0.824,-0.533c-0.16,-0.356 -0.364,-1.358 0.035,-1.433l-0,-0.001Zm0.702,2.777c0.404,0.082 1.522,0.866 2.456,1.609c1.652,1.312 4.167,5.321 3.648,5.896c-0.166,0.185 -0.744,0.191 -1.041,0.065c-1.769,-3.407 -4.066,-5.028 -4.998,-5.975c-0.283,-0.514 -0.944,-1.727 -0.064,-1.594l-0.001,-0.001Zm-3.675,0.601c0.077,-0.021 0.386,0.308 0.948,0.947c1.66,1.886 2.714,3.976 2.47,5.031c-0.206,0.893 -0.448,0.404 -2.348,-3.518c-0.799,-1.65 -1.182,-2.431 -1.07,-2.462l0,0.001Zm22.715,0.053c0.038,1.085 -0.043,1.352 -0.149,1.928c-0.072,0.392 -0.311,0.574 -0.538,0.879c-0.565,0.761 -1.206,2.076 -1.528,3.138c-0.272,0.857 -0.144,1.062 -1.118,0.947c-0.455,-0.065 -0.345,-0.197 -0.166,-0.763c0.614,-1.858 2.088,-4.869 3.501,-6.129l-0.001,0Zm-18.871,2.044c0.021,-0.557 4.455,4.272 3.846,4.815c-0.577,0.109 -0.921,0.132 -1.162,-0.091c-0.474,-1.148 -2.585,-3.326 -2.585,-3.326l-0.099,-1.398Zm18.624,1.522l0.028,0c0.198,0.044 0.088,3.013 -0.077,3.258c-0.316,0.172 -0.914,0.188 -1.233,0c-0.195,-0.115 -0.255,-0.327 -0.18,-0.556c0.184,-0.575 1.145,-2.631 1.463,-2.702l-0.001,-0Zm-16.735,3.266c-0.14,0.236 -1.003,0.277 -1.328,0.011c-0.105,-0.085 -0.206,-1.558 -0.085,-1.825c0.331,-0.233 1.522,1.496 1.413,1.814Z" style="fill:#131f67;fill-rule:nonzero;"/><path id="path4335" d="M103.273,20.185l0.556,0.789l-3.248,0.019c0.532,0.485 12.566,26.683 27.954,56.951c2.547,5.312 7.406,7.227 13.048,7.46l-14.944,-26.034c1.592,-0.938 4.752,-3.448 6.664,-2.982c0.119,0.635 0.686,0.382 0.694,-0.182l0.691,0.015l0.243,0.409l2.904,0l0.238,-0.371l2.504,0.389c-6.69,-8.921 -10.22,-22.668 -9.073,-36.087l-22.188,0.053l-0.295,-0.42l-5.747,-0.009Zm-2.692,0.808l-0.021,0l0.021,0Zm-25.508,17.463c-2.522,8.812 -8.76,16.062 -12.464,23.362c-3.971,7.965 -4.904,14.898 -3.786,22.48l0.726,0.068c8.465,-12.491 15.02,-27.414 18.689,-42.091c0.08,-0.319 -0.057,-0.884 0.01,-1.208c-0.157,-0.388 -0.02,-0.808 0.08,-0.921c0.213,-0.243 0.134,-1.195 -0.024,-2.77c-0.4,-4.677 -0.321,-8.348 0.04,-12.587c0.278,-3.255 0.263,-3.766 0.263,-3.766l-1.449,-0.024c0.267,5.54 -0.409,12.365 -2.084,17.455l-0.001,0.001Zm34.846,-17.08l2.381,0.053c0.367,7.871 6.496,8.895 7.443,8.781c-1.565,5.324 1.025,11.165 7.264,11.994c-1.43,4.935 1.102,11.441 6.093,11.264l0.528,0.361c-0.322,0.71 -0.391,2.172 -0.372,2.195c-1.109,0.088 -1.711,0.263 -2.432,0.417c-6.45,-10.52 -20.905,-35.065 -20.905,-35.065Zm21.163,-0c-0.721,8.794 0.91,20.871 4.728,28.008c0,0 -0.121,0.479 -0.202,0.608c-0.364,0.593 -0.544,0.08 -0.764,-0.398c-0.813,-1.625 -2.349,-1.878 -3.022,-0.973c-1.486,2.191 0.125,3.055 1.376,4.292c-5.111,-0.338 -6.815,-6.423 -5.634,-9.433c-0.027,0.574 0.258,1.441 0.633,2.055c1.436,2.356 3.534,0.369 2.933,-1.496c-0.249,-0.772 -1.165,-2.058 -1.165,-2.058c0,0 1.245,-0.198 1.753,-0.531c0.475,-0.319 0.775,-0.884 0.653,-1.657c-0.098,-0.62 -0.124,-0.891 -0.431,-1.45c-0.377,-0.51 -1.053,-0.862 -1.593,-0.823c-1.055,0.076 -1.184,0.862 -1.874,1.399c-0.172,-1.414 -1.009,-2.49 -2.376,-2.223c-1.04,0.203 -1.79,1.4 -1.152,2.898c0.322,0.765 0.774,0.997 1.229,1.66c-7.344,-0.89 -6.544,-10.323 -5.731,-10.155c0,0 0.221,-0.045 0.155,0.317c-0.418,2.309 2.232,3.688 3.394,2.011c0.741,-1.361 -0.85,-3.509 -0.85,-3.509c0,0 1.059,-0.246 1.54,-0.546c1.918,-1.196 -0.126,-4.633 -1.91,-3.789c-0.626,0.308 -0.785,0.937 -1.397,1.271c-0.409,-0.491 -0.434,-1.03 -1.168,-1.472c-2.013,-1.213 -3.273,1.657 -2.158,2.919c0.457,0.511 1.264,0.978 1.106,1.04c-6.244,-0.853 -6.183,-7.921 -6.04,-7.872l17.967,-0.095Zm-53.669,0.059l0.86,-0.001c-0.255,4.194 -0.805,9.726 -0.445,13.815c0.42,3.906 0.439,4.46 0.18,4.848c-0.355,0.431 -0.167,0.634 -0.097,0.984c0.093,0.642 0.102,0.648 0.018,1.014c-0.757,3.279 -1.724,6.677 -2.953,10.113c-4.018,11.984 -10.573,25.051 -15.714,31.903l-0.239,-0.002c-1.407,-9.562 1.6,-17.533 3.168,-20.804c3.182,-6.632 8.179,-12.294 11.146,-19.242c2.525,-5.912 4.388,-13.018 4.074,-22.629l-0,0.001Zm31.63,-0.041l20.94,35.227l-3.821,2.025l-21.43,-37.124l4.311,-0.127Zm-63.064,3.686c-7.425,0.119 -11.046,10.224 -4.829,15.077c1.118,0.872 1.461,1.38 1.157,1.717c-0.255,0.283 -0.6,0.151 -1.157,-0.448c-4.841,-5.141 -12.313,-2.33 -13.01,4.795c-1.155,11.81 12.429,14.906 15.91,3.664c0.998,-3.223 1.424,0.269 0.455,3.698c-0.806,3.162 -2.209,6.404 -3.849,9.106c-0.275,0.443 -0.674,1.007 -0.674,1.007l11.929,0c0,0 -0.379,-0.55 -0.917,-1.229c-2.17,-3.494 -3.347,-7.416 -3.727,-11.511c-0.088,-1.164 -0.051,-2.048 0.16,-2.195c0.361,-0.251 0.57,0.063 0.956,1.45c0.794,2.856 2.293,5.189 3.967,6.072c4.046,1.816 7.351,1.265 10.116,-2.72c5.981,-8.623 -3.799,-19.275 -10.789,-12.314c-0.642,0.633 -1.043,0.702 -1.105,0.18c-0.03,-0.252 0.151,-0.494 1.025,-1.382c6.007,-5.162 2.997,-14.009 -4.495,-14.907c-0.383,-0.045 -0.757,-0.066 -1.122,-0.06l-0.001,0Zm75.337,3.194c0.542,0 0.98,0.477 0.98,1.063c0,0.586 -0.437,1.063 -0.98,1.063c-0.542,0 -0.983,-0.477 -0.983,-1.063c0,-0.586 0.441,-1.063 0.983,-1.063Zm6.944,11.747c0.548,0 0.994,0.481 0.994,1.075c0,0.593 -0.445,1.075 -0.994,1.075c-0.548,0 -0.994,-0.481 -0.994,-1.075c0,-0.593 0.445,-1.075 0.994,-1.075Zm-49.894,2.098c0.358,1.535 -6.646,24.574 -16.599,39.235l4.346,0.098l0.134,0.518c6.088,9.724 2.281,18.326 -2.636,22.321l1.702,2.454l-1.532,1.342l-1.532,-1.973c-12.459,10.109 -36.77,32.487 -36.77,32.487l0.135,3.588l1.896,-1.616c12.332,12.913 38.482,12.207 45.34,-14.449l1.837,0.045c-4.148,19.537 -21.027,27.185 -33.765,23.945l-2.984,4.637l0.799,0.462c-0.147,-0.247 -0.283,-0.333 -0.066,-0.56l2.536,-3.529c19.059,2.641 30.567,-9.028 34.301,-24.836l2.432,0.045c-2.086,13.278 -7.84,24.969 -16.046,34.118c-5.922,-0.026 -16.334,-0.173 -16.334,-0.173c3.791,3.974 11.032,16.101 11.321,17.331c0,0 7.448,0.256 15.438,0.045c2.929,-1.426 6.847,-1.997 8.677,-0.999c3.216,1.753 6.238,8.258 7.597,18.696c0.35,2.689 0.668,3.828 0.764,4.37c0.018,0.098 0.236,0.169 0.267,0.151c0.123,-0.07 -0.195,0.475 -0.208,0.879c-0.013,0.404 -0.001,1.014 0.177,1.225c0.225,0.268 0.198,0.444 0.166,0.56c-0.021,0.076 -0.455,0.511 -0.455,0.511c-0.065,6.08 -0.033,11.6 -0.34,19.079l1.105,0.008c-0.008,-12.034 3.348,-23.169 8.521,-30.833c3.145,-5.031 6.472,-10.452 8.313,-15.614c2.072,-5.81 2.356,-11.917 1.247,-17.069l-0.758,0.045c-4.55,-3.373 -6.403,-10.574 -0.799,-15.72l-1.983,-2.792c-5.596,4.68 -6.882,13.315 -1.084,20.462l-2.268,-0.007c-5.658,-7.637 -4.405,-16.408 2.133,-22.667l-1.463,-2.011l1.59,-1.515l1.435,1.698l36.494,-32.985l-0.026,-3.609l-2.797,2.454c-16.37,-16.372 -40.646,-4.883 -44.206,14.836l-2.225,0.025c4.666,-21.222 21.856,-27.218 34.292,-24.396l3.069,-5.022c-2.258,-0.686 -4.459,-2.307 -6.538,-4.222c-0.875,-0.807 -1.429,-1.301 -2.065,-2.109c-5.89,-6.733 -9.888,-16.083 -10.075,-16.099l-16.015,-0.043c-2.35,1.257 -6.373,2.686 -8.581,0.757c-4.741,-4.141 -6.332,-12.496 -6.983,-17.872c-0.198,-1.673 -0.365,-4.585 -0.511,-5.551c-0.091,-0.177 -0.265,-0.187 -0.423,-0.157l0.001,-0.003Zm56.779,9.292c0.536,0 0.97,0.472 0.97,1.052c0,0.58 -0.434,1.049 -0.97,1.049c-0.536,0 -0.97,-0.469 -0.97,-1.049c0,-0.58 0.434,-1.052 0.97,-1.052Zm2.084,1.236c0.79,1.106 1.491,2.247 1.883,3.454c-0.368,-0.013 -0.714,0.111 -1.123,-0.234c-0.095,-1.218 -0.559,-1.95 -1.142,-2.761l0.382,-0.459Zm-2.929,1.552c0.324,0.172 0.581,1.494 0.354,1.721c-0.389,0.09 -0.656,0.06 -0.787,-0.088c-0.196,-0.349 0.175,-1.566 0.433,-1.633Zm-63.692,11.492l14.868,0.019c2.587,2.145 5.115,1.861 8.786,0.141l16.532,0l0.934,1.836l-41.926,0c0.233,-0.682 0.806,-1.996 0.806,-1.996Zm-1.226,2.867l42.787,0l1.081,1.883l-44.927,0l1.059,-1.883Zm4.131,2.736l4.801,0l-1.779,3.266l-4.954,0l1.932,-3.266Zm10.658,0l4.582,0l-2.039,3.262l-4.54,0l1.997,-3.262Zm14.819,0l-1.928,3.262l-4.659,0l2.001,-3.232l4.586,-0.03Zm5.746,0l4.589,0l-1.716,3.262l-4.752,0l1.879,-3.262Zm-61.638,0.507c-2.976,-0.037 -2.424,4.232 -2.144,4.098c-1.868,-0.463 -3.248,0.497 -3.478,2.219c-0.183,1.367 1.051,3.314 3.21,3.041c-0.287,0.358 0.006,2.423 0.293,2.611c0,0 0.037,0.299 -1.102,2.87c-1.352,3.051 -1.628,3.195 -2.241,1.191c-0.659,-2.156 -1.678,-3.248 -4.332,-4.641c-0.707,-0.371 -1.707,-1.019 -2.223,-1.439c-1.185,-0.966 -1.198,-0.951 -1.143,1.011c0.073,2.547 0.787,3.664 3.3,5.167c1.23,0.736 3.586,1.775 4.012,1.77c0.3,-0.004 1.402,0.531 3.036,1.473c0.319,0.184 1.411,0.835 2.81,0.981c1.484,0.113 4.829,-0.266 6.767,-1.476c1.087,-0.679 1.508,-1.288 2.31,-3.025c0,0 -2.747,0.154 -4.002,-0.203c-2.608,-0.166 -3.904,-0.002 -5.881,1.109c-1.654,0.929 -1.747,1.095 -1.056,-0.44c0.316,-0.705 0.61,-1.535 0.875,-2.36c0.289,-0.821 0.364,-0.89 1.087,-0.969c1.586,-0.175 2.49,-1.165 2.637,-2.882c0.039,-0.46 -0.024,-0.946 -0.024,-0.946c1.08,0.173 3.29,-0.406 3.222,-2.826c-0.062,-2.176 -1.496,-2.677 -3.261,-2.826c0.227,-1.115 -0.526,-3.479 -2.672,-3.506l-0.001,-0.002Zm0.036,0.675c2.607,0.02 2.546,2.608 1.411,4.077l-1.387,-1.235l-1.118,1.117c-1.218,-0.841 -1.212,-3.976 1.095,-3.959Zm71.329,0.031l1.282,2.048l-2.647,0l1.366,-2.048Zm-48.671,2.943l4.909,0l-1.97,2.995l-4.641,0c0,0 1.039,-1.912 1.702,-2.995Zm15.472,0l-1.855,3.111l-4.29,0l1.72,-3.048l4.426,-0.064Zm5.75,0l4.436,0l-1.754,3.318l-4.384,0l1.702,-3.318Zm10.439,0l4.491,0l-1.827,3.318l-4.429,0l1.765,-3.318Zm10.175,0l4.627,0l-1.91,3.318l-4.46,0l1.744,-3.318Zm-64.429,0.616l2.206,2.405l-2.15,2.33l-2.217,-2.292l2.161,-2.443Zm5.593,2.343c-0.391,2.794 -2.879,2.642 -3.587,1.276l1.014,-1.251l-1.243,-1.32c1.207,-2.094 4.111,-0.814 3.816,1.296l0,-0.001Zm-7.407,-1.337l-1.193,1.453l1.309,1.36c-0.843,1.267 -4.083,1.167 -3.434,-1.883c0.412,-1.937 2.234,-2.292 3.317,-0.931Zm75.608,-0.355l1.365,2.029l-2.56,0.022l1.196,-2.051Zm-53.24,2.492l54.89,0.192l1.469,1.943c-19.165,0.358 -37.931,-0.333 -57.509,-0.35l1.15,-1.785Zm-19.298,1.263c2.175,1.443 0.569,4.484 -1.766,3.967c-1.74,-0.827 -2.096,-2.779 -0.531,-3.912l1.226,1.093l1.07,-1.148Zm18.823,1.165l-1.497,0.007l-1.459,1.845c5.515,6.285 5.312,11.737 0.174,16.49l2.067,2.503c5.764,-5.334 7.042,-13.716 0.716,-20.845Zm5.666,0.241c3.092,5.225 5.765,15.123 -3.446,24.19l-1.112,-1.458c8.02,-8.473 6.135,-15.598 2.543,-22.667l2.015,-0.065Zm0.858,0.127l12.464,0.053c-2.668,11 -4.54,17.477 -4.822,34.685l-3.602,0.022c0.392,-0.397 -1.865,-10.39 -4.499,-13.855c5.523,-10.143 2.546,-15.864 0.459,-20.905Zm-39.206,0.015c0.215,-0.002 0.657,0.299 1.522,0.861c0.776,0.503 1.784,1.14 2.241,1.417c1.712,1.038 2.563,2.018 3.05,3.514c0.364,1.12 0.138,1.141 -0.91,0.087c-0.779,-0.784 -1.61,-1.461 -3.686,-2.999c-0.731,-0.542 -0.963,-0.452 -0.538,0.207c0.306,0.475 0.964,1.015 2.296,1.894c0.967,0.637 2.297,1.913 2.192,2.101c-0.095,0.171 -0.261,0.156 -0.726,-0.064c-0.215,-0.102 -0.911,-0.41 -1.542,-0.688c-2.715,-1.191 -3.874,-2.655 -4.036,-5.088c-0.057,-0.847 -0.105,-1.238 0.139,-1.24l-0.001,-0.001Zm56.881,0.053c0,0 0.375,0.536 0.424,0.759c0.105,0.483 -0.333,0.925 -1.712,1.59c-0.473,0.228 -0.867,0.351 -0.855,0.65c0.063,0.702 1.305,1.773 1.154,2.728c-0.286,0.731 -2.01,1.449 -2.442,2.311c0.003,0.593 1.122,1.501 0.962,2.307c-0.087,0.241 -0.448,0.487 -0.983,0.988c-1.095,1.027 -1.162,1.184 -0.76,1.984c0.933,1.858 0.967,1.721 -0.306,3.04c-1.283,1.33 -1.259,1.313 -0.646,2.469c0.661,1.246 0.63,1.19 -0.257,1.988c-0.869,0.782 -0.834,0.941 -0.368,1.913c0.451,0.94 0.554,0.953 -0.205,1.68c-0.886,0.849 -1.052,0.938 -0.427,2.007c0.646,1.105 0.694,1.058 -0.035,1.961c-0.69,0.855 -0.77,0.895 -0.396,1.476c0.47,0.731 0.559,0.925 0.066,1.729c-0.532,0.868 -0.53,0.807 -0.042,1.616c0.411,0.681 0.34,1.439 0.34,1.439l-1.542,-0.004c0,0 -0.011,-0.959 -0.191,-1.312c-0.437,-0.855 -0.426,-1.12 0.093,-1.879c0.533,-0.779 0.444,-0.845 -0.052,-1.623c-0.502,-0.788 -0.43,-0.78 0.222,-1.676c0.599,-0.822 0.629,-1.21 0.289,-1.68c-0.807,-1.113 -0.805,-1.582 0.007,-2.318c0.619,-0.561 0.677,-0.812 0.142,-1.774c-0.523,-0.941 -0.589,-1.027 0.372,-1.965c0.981,-0.959 0.971,-0.939 0.313,-2.025c-0.639,-1.054 -0.604,-1.124 0.42,-2.153c1.037,-1.041 1.051,-1.043 0.372,-2.356c-0.636,-1.229 -0.641,-1.208 0.601,-2.405c1.237,-1.115 1.658,-1.256 0.424,-2.856c-0.688,-1.269 -0.198,-1.394 0.931,-2.025c1.98,-1.308 1.078,-1.227 0.247,-3.168c-0.695,-1.301 -0.298,-1.311 0.914,-1.961c0.3,-0.14 0.634,-0.301 0.976,-0.507c0.811,-0.489 0.372,-0.936 0.372,-0.936l1.579,-0.01Zm2.588,0.03l5.951,0.083c-6.897,9.528 -10.217,21.714 -11.408,34.569l-2.248,-0.037c-0.141,-10.04 2.779,-22.582 7.705,-34.613l0,-0.001Zm30.555,0.223c3.403,3.099 5.925,4.873 7.72,5.573c0,0 -2.4,4.308 -2.585,4.151c-13.805,-2.876 -30.222,5.83 -33.935,24.603l-2.175,0.015c0.803,-7.366 2.595,-13.518 5.895,-19.936c3.275,-6.231 6.291,-9.873 10.839,-14.461l14.241,0.054Zm-23.75,-0.159l2.932,0.057c0,0 0.551,0.715 0.799,0.973c1.265,1.553 1.374,1.243 -1.414,2.947c-1.761,1.075 -2.541,1.575 -2.644,2.025c-0.079,0.454 0.769,1.355 0.869,1.961c0.001,0.068 -2.394,1.802 -2.828,2.048c-0.604,0.317 -0.635,0.59 -0.035,1.717c0.69,1.296 0.634,1.251 -0.855,2.375c-1.452,1.096 -1.737,0.987 -1.118,2.078c0.859,1.515 0.455,1.856 -1.567,3.037c-0.51,0.298 -0.523,0.597 -0.166,1.631c0.495,1.437 0.624,1.293 -0.42,2.071c-1.233,0.919 -1.451,0.944 -1.178,1.507c0.794,1.636 1.109,2.033 0.049,2.567c-0.809,0.407 -0.826,0.638 -0.378,1.717c0.45,1.085 0.566,1.042 -0.233,1.653c-0.74,0.567 -1.176,0.44 -0.455,1.368c0.57,0.733 0.519,1.312 0.055,1.762c-0.399,0.183 -0.585,1.004 -0.469,1.022l-1.028,0.03c-0.805,-1.174 0.145,-1.847 0.289,-1.961c0.131,-0.271 -0.029,-0.462 -0.354,-1.097c-0.447,-0.875 -0.431,-0.98 0.212,-1.492c0.65,-0.517 0.669,-0.383 0.236,-1.526c-0.504,-1.329 -0.481,-1.48 0.313,-2.097c0.78,-0.607 0.791,-0.741 0.261,-1.905c-0.559,-1.228 -0.56,-1.229 0.827,-2.224c0.975,-0.701 0.989,-0.659 0.473,-1.957c-0.357,-0.898 -0.105,-1.208 1.223,-2.191c0.758,-0.561 0.816,-0.673 0.459,-1.342c-0.984,-1.844 -0.974,-1.9 0.722,-3.089c1.388,-0.972 1.376,-1.056 0.841,-2.352c-0.579,-1.404 -0.632,-1.296 1.271,-2.529c1.567,-1.015 1.652,-0.957 1.007,-2.18c-0.802,-1.521 -0.751,-1.272 2.383,-3.209c1.13,-0.837 2.149,-0.547 1.025,-1.973c-0.495,-0.684 -1.101,-1.421 -1.101,-1.421l-0.001,0.001Zm-55.345,2.503c0.217,-0.009 0.386,0.28 0.375,0.815c-0.038,0.754 -0.368,1.502 -0.685,2.251c-0.663,1.527 -1.323,2.657 -1.671,2.661c-0.819,0.01 -0.797,-0.189 0.292,-2.492c0.497,-1.051 1.01,-2.251 1.091,-2.484c0.175,-0.503 0.406,-0.744 0.598,-0.752Zm10.074,3.457c0.015,3.232 -9.358,4.861 -9.844,3.229c1.634,-1.383 6.464,-0.769 7.488,-2.007c-1.234,-0.077 -2.905,0.143 -4.05,0.165c-1.428,0.028 -3.736,0.688 -3.76,0.961c-0.149,-0.851 2.453,-2.447 4.515,-2.548c1.927,-0.091 4.021,0.156 5.652,0.199Zm0.802,4.934c0,0 -18.275,16.357 -27.308,24.272l0.055,3.529l28.909,-25.602l-1.656,-2.198Zm-0.059,0.808l1.167,1.533l-27.138,23.919l-0.097,-2.506l26.068,-22.946Zm85.778,8.393l-0.975,1.126c-26.505,-21.334 -50.913,11.058 -37.454,34.23c-0.122,0.299 -1.058,1.038 -1.058,1.038c-15,-26.901 13.702,-58.378 39.488,-36.395Zm-14.585,-4.672c1.505,0.013 4.273,1.13 5.443,2.653c1.362,1.774 0.966,2.564 -0.764,0.89c-1.86,-1.461 -3.395,-1.801 -0.813,-0.075c0.57,0.381 1.082,1.124 1.108,1.207c0.094,0.296 -0.382,-0.014 -2.546,-0.868c-1.287,-0.507 -2.918,-1.88 -3.341,-2.814c-0.317,-0.699 0.125,-0.999 0.914,-0.992Zm-5.579,0.049c0.47,-0.004 0.888,0.036 1.185,0.127c1.896,0.589 2.493,0.898 3.199,1.492c0.484,0.407 0.328,0.7 -0.233,0.44c-0.654,-0.303 -2.725,-0.969 -3.095,-0.929c-0.538,0.06 0.001,0.441 0.774,0.65c1.714,0.463 2.564,0.942 1.341,0.962c-0.638,0.103 -3.429,0.112 -4.19,0.015c-1.27,-0.162 -3.172,-1.415 -2.734,-1.864c0.473,-0.484 2.344,-0.882 3.752,-0.894l0.001,0.002Zm-5.437,1.928c2.248,0.029 3.464,0.937 1.007,1.12c-4.224,0.723 -5.035,1.717 -0.354,0.534c1.09,-0.276 1.069,0.15 0.316,0.549c-0.615,0.323 -1.385,0.483 -2.025,0.819c-1.155,0.52 -3.8,0.635 -4.832,0.21c-1.523,-0.627 3.258,-3.265 5.888,-3.232l0.001,0Zm18.089,0.413c1.136,0.032 3.559,1.813 4.638,3.483c0.705,1.092 0.354,1.876 -0.712,0.999c-0.213,-0.175 -1.744,-1.583 -1.827,-1.616c-0.143,-0.057 1.27,1.395 1.476,1.804c0.177,0.346 0.585,1.141 -0.177,1.157c-1.191,-0.159 -3.988,-3.539 -4.006,-5.208c-0.004,-0.447 0.23,-0.631 0.608,-0.62l0,0.001Zm-14.093,0.951c0.473,-0.017 0.232,0.255 -0.667,0.94c-1.621,1.234 -0.776,0.987 1.118,-0.068c0.576,-0.321 1.271,-0.571 1.514,-0.62c0.244,-0.049 0.534,-0.121 0.646,-0.158c0.509,-0.169 0.116,0.51 -0.712,1.229c-1.743,1.512 -3.713,2.699 -5.072,3.063c-1.732,0.463 -2.1,0.523 -1.459,-0.647c1.017,-1.859 2.499,-3.345 3.915,-3.634c0.318,-0.065 0.558,-0.1 0.716,-0.105Zm5.829,0.03c0.721,-0.016 1.614,0.146 3.019,0.474c0.988,0.333 0.729,0.405 -0.455,0.545c-2.227,0.264 -1.3,0.545 0.865,0.503c2.954,-0.024 -1.48,1.152 -2.918,1.386c-1.122,0.054 -1.451,0.011 -3.897,-0.485c-0.932,-0.189 -0.373,-0.928 1.393,-1.841c0.722,-0.373 1.272,-0.567 1.994,-0.582l-0.001,0Zm18.255,0.432l0.08,2.059l-35.763,32.348l-1.216,-1.454l36.899,-32.953Zm-12.169,1.77c1.426,-0.021 3.487,1.05 3.266,1.695c-0.082,0.241 -0.242,0.231 -1.33,-0.083c-0.714,-0.205 -1.994,-0.423 -1.824,-0.252c0.059,0.059 1.057,0.472 1.438,0.571c1.26,0.327 2.769,1.098 2.435,1.327c-0.584,0.385 -1.118,0.084 -1.81,0.004c-1.729,-0.26 -4.569,-1.204 -5.037,-1.676c-0.53,-0.535 1.328,-1.564 2.862,-1.586l-0.001,0Zm-16.681,0.12c0.257,0.014 0.353,0.273 0.107,0.628c-0.373,0.532 -0.544,0.978 -0.879,1.631c-1.196,1.997 -1.949,2.788 -3.099,3.562c-1.149,0.774 -1.313,0.641 -1.212,-0.969c0.129,-1.672 1.236,-3.432 2.8,-4.257c0.722,-0.111 1.136,-0.316 0.378,0.665c-1.344,1.742 -0.424,1.563 0.83,-0.413c0.399,-0.628 0.816,-0.86 1.073,-0.846l0.001,0Zm-4.645,0.233c0.775,-0.004 1.035,0.293 0.042,0.796c-0.946,0.48 -2.827,1.903 -2.873,2.059c-0.078,0.265 0.626,-0.151 1.796,-0.842c1.564,-0.924 1.701,-0.901 0.945,0.154c-0.855,1.194 -2.912,2.689 -4.527,3.243c-2.259,0.669 -2.203,0.201 -0.942,-1.612c1.204,-1.971 2.225,-2.912 3.766,-3.45c0.675,-0.236 1.327,-0.347 1.793,-0.35l0,0.001Zm-38.309,0.301c8.195,15.289 3.646,30.824 -5.862,38.746c-9.941,8.282 -25.405,7.791 -34.531,-2.149l1.266,-1.293c-0.006,0.006 14.386,15.862 32.512,1.788c9.199,-7.143 12.999,-24.01 5.41,-35.768l1.204,-1.323Zm-36.712,0.033l-0.063,0.015c-0.276,0.194 -1.316,3.496 -1.525,4.867c-0.061,0.401 0.029,0.794 0.333,1.116c0.213,0.226 0.56,0.08 0.667,0.033c0.693,-0.339 1.076,-0.859 1.681,-2.506c0.406,-0.901 0.462,-1.98 0.382,-2.356c-0.032,-0.152 -0.257,-0.508 -0.538,-0.71c-0.311,-0.224 -0.752,-0.46 -0.938,-0.459l0,0.001Zm0.16,0.688c0.328,-0.003 0.976,0.573 1.056,0.984c0.006,0.717 -0.373,1.91 -0.657,1.732c-0.473,-0.636 -1.018,-0.235 -1.108,-0.466c-0.061,-0.706 0.358,-1.629 0.646,-2.243l0.063,-0.007Zm88.513,0.571c3.644,0.001 7.268,1.156 9.928,3.706l-1.421,1.41c-6.241,-4.812 -13.505,-3.404 -17.81,-0.158c-4.262,3.213 -8.035,10.327 -4.339,20.345l-1.334,1.308c-4.14,-8.058 -1.918,-18.708 5.409,-23.746c2.584,-1.777 5.893,-2.793 9.212,-2.86l0.354,-0.004l0.001,0Zm-53.889,1.176c0.11,0 0.278,0.392 0.261,0.872c-0.021,0.577 -0.247,1.329 -0.608,1.488c-0.406,0.179 -0.663,-1.131 -0.663,-1.131c0.25,-0.428 0.59,-0.862 1.011,-1.229l-0,-0.001Zm65.246,0.451c0.149,-0.008 0.292,-0.002 0.417,0.015c0.407,0.055 0.411,0.448 0.028,0.827c-0.413,0.409 -0.629,0.43 -1.045,0.101c-0.373,-0.293 -0.392,-0.51 -0.069,-0.759c0.169,-0.116 0.423,-0.17 0.671,-0.184l-0.001,-0Zm-69.99,0.09l1.209,1.612l-4.19,3.645l-0.5,0.041l-32.07,28.729l-0.007,-2.552l35.558,-31.476Zm67.008,3.889l-4.368,3.898c-8.73,-4.906 -15.731,3.837 -13.261,11.778l-3.777,3.546c-6.756,-20.057 13.003,-26.92 21.406,-19.223Zm-22.869,-3.063l0.038,0l0.087,0.06c0.153,0.162 -0.152,2.821 -0.378,3.314c-0.082,0.18 -0.147,0.411 -0.146,0.514c0.002,0.218 -0.804,2.043 -1.435,3.247c-0.238,0.454 -0.492,1.049 -0.562,1.327c-0.506,2.633 -1.597,-1.601 -1.212,-4.058c0.181,-1.155 1.697,-3.54 2.136,-3.363c0.224,0.09 0.208,0.272 -0.184,1.195c-1.095,2.575 -1.369,3.903 -0.219,1.413c1.326,-2.87 1.67,-3.608 1.876,-3.649l-0.001,0Zm-74.198,0.053c0.162,0.01 0.291,0.108 0.361,0.312c0.049,0.174 0.101,0.537 0.01,0.714c-0.224,0.546 -0.688,0.905 -1.157,0.872c-0.206,-0.014 -0.431,-0.21 -0.459,-0.451c-0.025,-0.217 0.024,-0.587 0.278,-0.868c0.334,-0.37 0.696,-0.596 0.966,-0.579l-0.001,-0.001Zm33.252,0.166c0.518,0.027 1.063,1.533 0.716,2.221c-0.284,0.563 -0.336,0.458 -0.834,-0.632c-0.261,-0.573 -0.462,-1.187 -0.462,-1.187l0.424,-0.361l0.107,-0.037l0.049,-0.004l0.001,0Zm-0.872,0.635c0,0 0.545,1.066 0.677,1.917c0.081,0.519 0.068,0.422 -0.459,0.207c-0.414,-0.28 -0.506,-0.443 -0.764,-0.793c-0.17,-0.324 -0.34,-0.564 -0.34,-0.564l0.886,-0.767Zm3.272,0.229c0.275,-0.01 0.571,0.291 0.841,1.026c1.015,2.762 0.922,5.861 -0.219,7.324c-0.189,0.242 -0.235,0.252 -0.462,0.101c-0.186,-0.123 -0.203,-1.436 -0.024,-1.808c0.056,-0.116 0.224,-0.909 0.236,-1.356c0.03,-1.061 -0.239,-1.194 -0.368,-0.21c-0.149,1.136 -0.311,1.93 -0.598,1.248c-0.144,-0.347 -0.217,-0.694 -0.327,-1.063c-0.571,-2.388 0.095,-5.231 0.92,-5.261l0.001,-0.001Zm-4.422,0.706c0,0 0.977,1.364 1.379,1.852c0.142,0.264 0.136,0.33 -0.091,0.424c-0.386,0.16 -1.679,-0.772 -2.192,-1.06c-0.276,-0.238 -0.156,-0.42 -0.156,-0.42c0.353,-0.287 0.706,-0.571 1.059,-0.796l0.001,0Zm38.531,0.049c0.521,-0.006 0.521,0.19 -0.035,1.056c-3.107,4.836 -2.48,4.117 -0.504,1.473c1.099,-1.471 1.29,-1.61 1.411,-1.281c0.091,0.246 -1.217,3.108 -1.893,4.145c-0.35,0.536 -1.543,1.432 -2.147,1.762c-1.478,0.809 -1.314,0.484 -0.768,-1.522c0.696,-3.112 2.446,-5.615 3.936,-5.633l0,-0.001Zm-40.356,1.672c8.518,22.914 -14.807,32.971 -25.331,22.374l1.226,-1.056c14.64,10.741 29.089,-6.467 22.475,-19.932c0,0 0.599,-0.539 1.629,-1.386Zm1.973,0.556c1.402,0.155 3.473,2.93 3.578,4.476c0.222,1.098 -0.066,1.286 -0.562,0.514c-0.84,-1.679 -0.739,-0.615 -0.024,1.052c0.38,0.842 0.467,1.852 0.073,1.905c-0.54,-0.118 -1.706,-2.131 -2.063,-2.961c-0.851,-1.818 -0.913,-1.51 -1.379,-4.205c-0.088,-0.505 0.035,-0.777 0.378,-0.781Zm-4.238,0.752c6.489,13.46 -7.469,29.634 -21.666,19.18l4.255,-3.653c7.41,3.845 15.676,-0.924 13.309,-11.977l4.103,-3.55Zm64.728,2.509l-11.704,10.55c-2.409,-8.745 6.436,-13.741 11.704,-10.55Zm-21.74,-0.022c0.383,-0.086 0.707,2.563 0.778,6.279c0.069,3.636 0.155,3.995 -0.889,2.657c-0.438,-0.546 -0.977,-1.066 -1.216,-1.556c-0.694,-1.419 -0.473,-2.906 -0.281,-4.983c0.179,-1.938 0.82,-1.635 0.716,0.394c-0.067,1.306 -0.054,2.93 0.135,2.927c0.068,-0.001 0.088,-0.127 0.045,-0.304c-0.091,-0.372 0.323,-4.581 0.493,-5.077c0.074,-0.214 0.148,-0.323 0.219,-0.338l0.001,0.001Zm-32.258,1.601c0.845,0.358 1.086,3.41 0.17,6.362c-0.394,1.269 -0.998,2.097 -1.9,2.608c-0.643,0.365 -0.794,0.249 -0.504,-0.387c0.534,-1.037 0.819,-2.112 1.035,-3.45c0.087,-1.306 -0.551,-0.257 -0.497,0.301c-0.499,2.436 -1.155,2.802 -1.07,0.237c0.063,-1.891 0.292,-2.702 1.115,-4.002c0.414,-0.651 0.857,-1.547 1.65,-1.668l0,-0.001Zm29.357,0.308c0.348,0.003 0.433,0.508 0.121,1.492c-0.216,0.682 -0.951,2.89 -0.865,2.882c0.054,-0.005 0.843,-1.991 1.004,-2.315c0.264,-0.532 0.362,-0.633 0.594,-0.608c0.226,0.98 -0.007,2.205 -0.118,3.221c-0.478,2.646 -2.144,5.379 -2.783,4.566c-1.04,-1.325 -0.553,-6.693 0.827,-8.324c0.52,-0.615 0.949,-0.916 1.219,-0.913l0,0.001Zm-44.58,0.406c1.257,9.361 -5.883,13.357 -12.05,10.534c0.13,-0.035 12.05,-10.534 12.05,-10.534Zm29.187,0.173l1.243,1.766l2.278,0.127l-1.167,1.86l1.16,2.383l-2.543,0.053l-1.463,1.819l-1.271,-1.642l-2.223,-0.127l1.296,-2.236l-1.045,-2.138l2.401,-0.124l1.334,-1.74Zm-19.124,0.804c0.286,0.011 1.691,2.009 1.831,2.747c0.425,1.787 0.268,5.167 -0.327,5.051c-0.645,-2.435 -0.394,-3.692 -0.625,-3.412c-0.4,0.448 0.249,4.18 0.035,5.099c-0.102,0.234 -0.447,-0.048 -0.834,-0.65c-1.034,-1.608 -0.894,-7.9 -0.105,-8.827l0.024,-0.007l0.001,-0Zm76.101,3.793l-28.124,25.203l1.623,2.259l26.552,-23.714l-0.051,-3.747Zm-40.619,0.435c0.123,-0.027 0.403,0.186 0.931,0.812c0.92,1.344 1.896,3.19 2.251,4.611c0.135,0.553 0.351,1.285 0.483,1.627c0.197,0.514 0.213,0.656 0.097,0.812c-0.487,0.649 -2.524,-0.986 -3.182,-2.552c-0.923,-2.199 -0.947,-4.181 -0.021,-2.251c0.336,0.702 0.755,1.725 0.75,1.319c-0.001,-0.115 -0.41,-1.59 -0.722,-2.247c-0.194,-0.413 -0.901,-2.061 -0.587,-2.131l-0.001,0.002Zm40.321,0.612l0.059,2.086l-26.192,23.697l-1.028,-1.353c0,0 24.671,-22.196 27.162,-24.43l0,0.001Zm-40.894,1.289c0.123,0.014 0.186,0.204 0.149,0.628c-0.12,1.378 -0.434,4.377 -0.368,4.641c0.039,0.159 0.414,-1.986 0.5,-2.368c0.448,-1.988 1.132,2.764 0.719,4.893c-0.065,0.334 -0.196,0.874 -0.264,1.207c-0.068,0.331 -0.287,0.898 -0.375,1.049c-0.742,1.262 -2.485,-3.764 -2.192,-6.325c0.183,-1.594 1.391,-3.772 1.831,-3.724l0.001,-0.001Zm-30.302,1.101c0.342,-0.02 0.409,0.344 0.351,1.109c-0.198,2.622 -1.81,5.375 -3.575,6.107c-1.758,0.729 -1.921,0.583 -0.879,-0.778c0.791,-1.031 1.269,-2.114 1.136,-2.255c-0.074,-0.077 -0.249,0.355 -0.889,1.244c-0.802,1.114 -0.935,0.17 -0.205,-1.465c0.63,-1.414 1.219,-2.153 2.404,-3.017c0.836,-0.61 1.355,-0.925 1.657,-0.943l-0,-0.001Zm15.927,0.796c-0.354,11.289 -2.956,23.553 -7.979,34.215l-4.693,0.011c5.747,-9.157 9.414,-20.495 10.435,-34.178l2.237,-0.049Zm2.063,0.011c0,0 0.704,0.79 0.99,1.323c0.316,0.588 0.403,1.101 -0.17,1.541c-0.666,0.609 -0.944,0.383 0.142,1.894c0.572,0.796 0.386,0.926 -0.323,1.597c-0.732,0.692 -0.774,0.729 -0.093,1.664c0.728,1.001 0.86,1.155 -0.091,1.928c-0.856,0.696 -0.866,0.86 -0.198,1.992c0.615,1.042 0.802,1.032 -0.378,2.112c-1.009,0.922 -1.032,0.667 -0.059,2.364c0.358,0.624 0.333,0.665 -0.323,1.293c-1.612,1.543 -1.528,1.447 -1.299,1.852c1.767,2.739 0.968,2.661 -0.76,3.968c-0.349,0.323 -0.259,0.686 0.521,2.055c0.663,1.163 0.567,1.415 -0.986,2.571c-1.617,1.203 -1.67,1.366 -0.861,2.593c0.797,1.209 0.814,1.127 -0.479,2.375c-0.584,0.563 -1.063,1.082 -1.063,1.082l-2.866,0c0,0 0.605,-0.598 1.018,-0.929c2.354,-1.884 2.344,-1.685 1.352,-3.044c-0.878,-1.203 -0.794,-1.281 0.097,-1.969c0.64,-0.495 1.503,-1.004 2.15,-1.511c0.349,-0.268 0.091,-0.492 -0.49,-1.68c-0.651,-1.332 -0.686,-1.177 0.525,-2.255c1.325,-1.179 1.347,-1.136 0.629,-2.63c-0.721,-1.499 -0.732,-1.369 0.177,-2.172c1.352,-1.195 1.417,-1.13 0.705,-2.514c-0.568,-1.104 -0.573,-1.072 0.386,-2.108c0.967,-1.045 0.847,-0.979 0.275,-1.935c-0.582,-0.972 -0.551,-1.103 0.216,-1.841c0.826,-0.796 0.709,-0.747 0.024,-1.762c-0.675,-1.001 -0.665,-0.926 0.156,-1.703c0.431,-0.408 0.866,-0.823 0.841,-1.015c-0.063,-0.495 -0.5,-1.196 -0.92,-1.871c-0.16,-0.257 0.16,-0.336 0.674,-0.913c0.522,-0.587 0.498,-0.44 0.105,-1.218c-0.213,-0.421 -0.618,-1.131 -0.618,-1.131l0.998,-0.003Zm-7.681,0.026l0.816,0.022c0,0 0.141,0.2 0.33,0.409c0.524,0.579 0.548,0.918 0.021,1.229c-0.506,0.298 -0.311,0.715 0.111,1.386c0.448,0.712 0.444,0.631 -0.198,1.33c-0.663,0.584 -1.006,0.749 -0.275,1.852c0.416,0.512 0.364,1.041 -0.281,1.5c-0.496,0.353 -1.32,0.646 -0.451,1.988c0.424,0.956 0.457,0.895 -0.427,1.574c-1.177,0.904 -1.399,0.746 -0.858,2.063c0.601,1.465 0.66,1.487 -0.573,2.469c-1.434,1.141 -1.483,1.234 -0.886,2.6c0.602,1.379 0.618,1.029 -0.9,2.307c-1.112,0.937 -1.364,0.988 -1.035,1.762c0.617,1.451 0.878,1.84 -0.92,2.837c-2.077,1.152 -2.182,1.237 -1.185,2.95c0.811,1.393 0.631,1.195 -0.709,2.029c-1.937,1.206 -2.792,1.731 -2.852,2.105c-0.04,0.424 1.511,1.684 1.511,1.684l-2.702,0.079c0,0 -1.136,-0.998 -1.577,-1.462c-1.223,-1.287 -1.236,-0.866 2.828,-2.999c2.242,-1.177 2.055,-0.91 1.688,-1.597c-1.081,-2.028 -1.119,-2.239 0.91,-3.345c1.763,-0.96 1.461,-1.029 1.031,-2.48c-0.373,-1.265 -0.314,-1.148 0.615,-1.894c2.246,-1.802 2.185,-1.616 1.834,-2.499c-0.345,-0.87 -0.61,-1.274 -0.351,-1.703c0.809,-1.256 2.531,-1.523 1.827,-3.017c-0.328,-0.964 -0.445,-1.18 0.546,-2.014c0.894,-0.804 0.899,-0.707 0.327,-1.77c-0.696,-0.976 -0.596,-1.136 0.424,-1.902c0.727,-0.719 0.717,-0.7 0.309,-1.402c-0.562,-0.967 -0.535,-0.997 0.267,-1.758c0.654,-0.62 0.768,-0.654 0.351,-1.338c-0.553,-0.908 -0.462,-1.107 0.267,-1.552c0.447,-0.273 0.445,-0.385 0.406,-0.846c-0.007,-0.088 -0.24,-0.601 -0.24,-0.601l0.001,0.002Zm10.136,0.053l3.762,0.011c1.201,7.546 3.3,10.643 4.513,13.033c-4.757,8.261 -3.675,15.122 -0.772,21.195l-11.915,-0.049c3.055,-11.305 4.63,-22.679 4.412,-34.189l0,-0.001Zm-25.824,0.03c0.138,-0.011 0.236,0.231 0.469,0.662c0.754,1.39 0.221,3.361 -0.883,5.426c-0.825,1.545 -0.975,0.365 -0.598,-1.86c0.238,-1.403 -0.415,0.699 -0.726,2.394c-0.169,0.919 -0.576,1.66 -1.018,1.616c-0.417,-0.073 -0.288,-1.36 -0.275,-1.646c0.094,-2.028 0.793,-3.465 2.15,-5.479c0.514,-0.763 0.722,-1.1 0.879,-1.113l0.001,0Zm38.406,3.968c0.179,-0.009 0.428,0.072 0.736,0.263c0.24,0.149 0.671,0.431 0.97,0.608c1.043,0.621 1.128,0.811 0.632,1.436c-0.613,0.772 -1.006,0.479 -2.067,-0.808c-0.716,-0.868 -0.728,-1.477 -0.271,-1.5l-0,0.001Zm-0.347,1.699c0.169,0.004 0.516,0.201 0.855,0.62c0.688,0.851 0.604,1.57 -0.156,1.364c-0.311,-0.491 -0.471,-1.239 -0.768,-1.793c-0.068,-0.126 -0.032,-0.194 0.069,-0.192Zm33.606,0.109c-0.666,0.002 -1.782,0.952 -1.994,1.92c-0.647,2.952 -0.646,2.825 -0.066,3.254l0.382,0.274c0.34,0.291 0.804,0.74 0.865,0.65c0.553,0.003 1.393,-3.779 1.365,-4.558c0.035,-0.823 0.061,-0.922 -0.129,-1.296c-0.086,-0.17 -0.237,-0.244 -0.424,-0.244l0.001,0.002Zm-34.117,0.064c0.044,-0.009 0.1,0.017 0.166,0.075c0.437,0.47 0.612,1.311 0.834,1.913c0.001,0.131 -0.049,0.345 -0.111,0.474c-0.377,0.784 -0.964,0.024 -1.025,-1.327c-0.034,-0.759 0.002,-1.107 0.135,-1.135Zm34.012,0.582l0.083,0c0.448,0.022 0.378,0.522 -0.243,1.248c-0.327,0.381 -1,0.562 -1.223,0.327c-0.324,-0.342 0.345,-1.284 1.073,-1.511c0.119,-0.037 0.222,-0.058 0.309,-0.064l0,-0.001Zm-75.566,0.413l0.073,0c0.234,0.016 0.43,0.13 0.584,0.323c0.298,0.398 0.172,1.015 0.031,1.53c-0.353,1.349 -2.691,3.962 -3.529,3.972c-0.499,-0.094 1.588,-2.963 1.653,-3.446c-0.155,-0.164 -1.449,1.452 -2.056,2.574c-0.275,0.508 -0.587,1.135 -0.754,1.244c-0.436,0.054 -0.939,0.354 -0.942,0.037c0.072,-1.433 2.666,-4.557 3.551,-5.426c0.543,-0.553 1.012,-0.8 1.389,-0.808Zm6.256,0.135c2.005,-0.024 -1.942,4.72 -4.495,5.404c-0.795,0.213 -2.261,0.269 -2.365,0.09c-0.105,-0.178 0.013,-0.324 0.34,-0.417c0.527,-0.15 3.135,-1.946 3.133,-2.157c-0.003,-0.266 -1.081,0.175 -2.001,0.819c-0.596,0.417 -0.876,0.33 -0.552,-0.173c1.499,-2.332 3.504,-3.537 5.94,-3.566Zm34.693,0.008c0.114,0.01 0.227,0.255 0.299,0.8c0.364,1.017 0.381,1.294 0.038,1.594c-0.588,0.512 -0.732,0.369 -0.726,-0.808c0.005,-0.969 0.2,-1.602 0.389,-1.586Zm-66.027,1.349c0,0 0.731,0.296 0.427,0.673c-0.211,0.261 -1.111,0.039 -1.112,-0.037l0.685,-0.636Zm100.689,0.03c0.239,-0.017 0.244,0.221 0.118,0.823c-0.066,0.316 -0.355,1.977 -0.865,2.438c-0.062,0.044 -0.802,-0.434 -1.004,-0.654c-0.092,-0.102 -0.382,-0.335 -0.42,-0.488c-0.126,-0.503 0.009,-1.155 0.361,-1.48c0.138,-0.127 0.414,-0.197 0.562,-0.199c0.117,-0.002 0.462,-0.124 0.768,-0.271c0.214,-0.103 0.371,-0.162 0.479,-0.169l0.001,0Zm-100.432,1.146c0.481,-0.004 1.073,0.052 1.574,0.237c1.478,0.465 4.19,1.778 4.606,2.21c0.607,0.628 -0.978,1.296 -2.884,1.319c-1.011,0.012 -1.201,-0.215 -2.599,-1.12c-0.18,-0.128 -0.994,-0.706 -0.758,-0.917c0.259,-0.287 1.039,0.082 2.011,0.616c0.317,0.174 1.089,0.124 1.087,-0.03c-0.002,-0.182 -1.943,-0.962 -3.397,-1.462c-0.955,-0.328 -0.933,-0.659 -0.347,-0.8c0.168,-0.027 0.417,-0.05 0.705,-0.053l0.001,0Zm-1.91,0.718c0,0 0.403,0.385 0.924,0.808c0.566,0.459 1.224,1.025 1.681,1.777c0.662,0.873 1.708,3.045 1.591,3.439c-0.268,0.901 -3.062,-0.681 -5.346,-3.153c-0.743,-0.804 -1.178,-1.402 -1.178,-1.402l0.872,-0.853c0,0 0.766,0.693 1.65,1.537c1.659,1.583 1.648,1.039 -0.021,-0.628c-0.472,-0.471 -0.907,-0.894 -0.907,-0.894c0.022,-0.303 0.286,-0.569 0.733,-0.632l0.001,-0.001Zm68.25,0.075c0,0 0.892,1.001 1.223,1.462c-5.437,5.75 -7.513,13.782 -2.265,22.337l-2.518,-0.011c-4.717,-10.042 -2.48,-17.602 3.561,-23.788Zm-45.983,0.237c0.338,-0.017 0.03,0.414 -0.57,1.518c-1.12,2.062 -1.342,2.583 -3.161,3.096c-0.468,0.131 -1.136,0.027 -1.411,0.064c-0.783,0.106 -0.434,-0.002 0.764,-0.842c1.661,-1.165 0.25,-0.566 -1.285,0.289c-0.889,0.495 -1.822,0.471 -1.904,0.214c-0.045,-0.142 0.36,-0.514 0.622,-0.767c2.338,-2.262 3.056,-2.167 5.231,-2.984c0.95,-0.357 1.481,-0.579 1.712,-0.59l0.001,0.002Zm-9.776,2.063c0.847,0.006 1.636,0.097 2.338,0.267c0.465,0.113 1.222,0.214 0.584,0.838c-0.723,0.736 -2.675,1.74 -4.12,1.808c-0.203,0.008 -3.178,-0.219 -2.543,-0.909c0.127,-0.076 0.531,-0.057 0.879,-0.127c1.648,-0.338 1.202,-0.624 -0.827,-0.507c-2.541,0.147 -2.657,-0.138 -0.733,-0.706c1.407,-0.417 2.79,-0.63 4.057,-0.658l0.364,-0.004Zm13.576,0.21c1.131,-0.012 2.01,0.206 2.015,0.673c0.008,0.757 -2.134,2.415 -3.54,2.743l-1.045,0.248c-0.49,0.119 -3.206,0.018 -3.47,-0.087c-1.271,-0.499 -0.387,-0.695 1.946,-0.988c1.015,-0.127 1.5,-0.415 1.497,-0.624c-0.001,-0.101 -0.749,-0.13 -1.862,0.022c-1.243,0.17 -0.999,-0.225 0.549,-1.093c1.023,-0.573 2.63,-0.881 3.911,-0.894l-0.001,0Zm-20.929,1.049c0.158,0.004 0.54,0.147 1.174,0.432c1.354,0.426 3.214,0.909 4.488,2.412c1.028,1.077 1.279,1.425 1.063,1.804c-0.262,0.459 -3.454,0.11 -4.798,-0.511c-0.887,-0.41 -1.945,-1.291 -2.428,-2.051c-1.171,-1.844 -0.678,-2.33 0.809,-1.041c1.793,1.553 2.058,1.713 2.376,1.642c0.128,-0.029 -0.188,-0.347 -0.788,-0.831c-1.51,-1.213 -2.245,-1.866 -1.896,-1.856l-0.001,-0Zm11.043,1.981c1.501,0.002 1.826,0.123 3.283,0.846c1.824,0.695 1.382,1.314 -1.855,2.187c-1.621,0.412 -3.252,0.123 -4.436,-0.665c-2.609,-1.737 -2.437,-2.084 0.476,-1.308c0.957,0.255 1.91,0.303 1.97,0.109c0.045,-0.148 -1.112,-0.467 -2.053,-0.804c-1.018,-0.365 -0.143,-0.334 1.893,-0.357l0.722,-0.007l0.001,-0.001Zm75.067,7.502c0,0 -0.333,0.17 -0.481,0.258c-0.116,0.069 -1.018,0.191 -2.005,0.271c-1.945,0.157 -3.253,0.494 -4.433,1.007c-1.782,0.775 -2.973,3.164 -2.973,3.164c1.332,-0.098 8.869,1.376 10.961,-1.562c0.438,-0.615 -1.124,4.643 -1.926,4.876c-1.987,-0.258 -2.822,3.115 -2.624,2.972c-2.004,0.84 -3.557,1.333 -3.048,3.849c0.222,1.097 1.25,2.4 3.428,2.073c-0.593,4.363 4.342,5.491 4.885,0.233c0,0 0.962,-0.198 1.332,-0.246c2.25,-0.577 2.795,-4.133 -0.507,-5.261c-0.917,-0.294 -0.968,-0.48 -0.968,-0.48c0.171,-0.803 0.13,-1.645 -0.406,-2.58c0.728,-1.878 2.541,-5.499 2.541,-5.499l-3.777,-3.074Zm0.349,1.085c0.454,0.656 -1.914,1.742 -4.435,1.977c-0.565,0.053 -1.809,0.176 -1.841,0.237c-0.272,0.514 4.875,0.141 6.478,-0.831c0.549,-0.333 0.599,-0.04 0.36,0.473c-1.862,2.589 -6.355,1.951 -9.868,1.496c-0.2,-0.218 -0.029,-0.486 0.758,-1.176c1.444,-1.267 2.483,-1.69 4.762,-1.943c0.636,-0.022 3.499,-0.604 3.785,-0.233Zm2.783,2.679c-0.324,1.114 -2.015,4.513 -2.015,4.513c-0.208,0.225 -0.949,0.383 -0.893,-0.477c0.009,-0.924 1.608,-4.73 2.039,-4.803c0.515,-0.043 0.894,0.367 0.869,0.767Zm1.073,0.26c0.495,3.901 3.232,4.828 5.858,6.058c0.691,0.342 1.277,0.952 1.97,1.345c1.298,-1.914 -0.164,-5.632 -2.449,-6.843c-1.698,-0.857 -3.244,-1.539 -4.2,-1.462c-0.553,0.045 -1.171,0.428 -1.179,0.901l0,0.001Zm1.404,-0.233c0.294,-0.003 0.714,0.088 2.248,0.53c2.315,0.666 3.947,2.513 4.374,4.945c0.017,0.099 0.136,1.984 -0.263,1.916c-0.603,-0.188 -0.928,-0.844 -1.894,-1.281c-1.207,-0.546 -2.901,-1.264 -3.939,-2.285c-0.839,-0.824 -1.298,-1.712 -1.4,-2.473c-0.104,-0.789 0.141,-0.87 0.754,-0.233c1.373,1.182 2.728,1.586 4.085,2.728c0.377,0.317 1.731,1.129 0.807,0.118c-0.626,-0.685 -2.471,-1.879 -3.45,-2.388c-1.361,-0.708 -2.101,-1.569 -1.32,-1.578l0,0.001Zm-104.25,3.893l15.518,26.241c-3.819,2.179 -5.702,3.134 -12.044,2.597l0.024,0.346l-2.694,-0.17c4.655,7.859 10.399,18.113 8.769,36l18.902,-0.021l0.324,0.324c0.276,0.202 0.691,-0.355 0.691,-0.355l8.527,-0.049l0.23,0.298l3.976,-0.03c0,0 -18.179,-36.799 -27.31,-55.071c-3.751,-7.33 -7.658,-10.586 -14.913,-10.108l-0.001,-0.001Zm97.851,0.868c1.019,-0.027 2.032,0.73 2.039,2.202c0.004,0.767 -0.594,1.836 -0.594,1.836l-1.385,-1.428l-1.324,1.433c-0.652,-0.583 -1.038,-1.692 -0.825,-2.324c0.407,-1.079 1.295,-1.699 2.088,-1.72l-0,0.002Zm-16.049,0.522c1.313,5.536 2.732,13.171 -8.657,30.815c-6.736,10.436 -8.94,20.28 -9.209,32.295l-0.681,0.004c0.322,-6.594 0.364,-18.549 0.364,-18.549l0.636,-0.612c0,0 -0.289,-0.508 -0.417,-1.105c-0.215,-1.006 -0.034,-0.671 0.521,-3.371c2.328,-13.042 17.442,-39.476 17.442,-39.476l-0.001,-0.001Zm-60.812,2.54l57.718,0.286l-0.768,1.638l-55.852,-0.432l-1.098,-1.492Zm76.935,0.474l2.143,2.259l-2.094,2.544l-2.206,-2.495l2.157,-2.308Zm-1.758,0.96l-1.169,1.345l1.014,1.154c-1.043,2.369 -3.82,0.521 -3.727,-1.253c0.109,-2.075 2.35,-2.925 3.883,-1.246l-0.001,-0.001Zm3.704,2.673l0.931,-1.281l-1.053,-1.248c1.723,-1.841 3.353,-0.22 3.511,1.316c0.168,1.637 -2.192,3.486 -3.389,1.212Zm-68.359,-1.566l4.728,0.049l-1.758,3.559l-4.794,-0.022l1.824,-3.585Zm10.532,0.026l4.342,0l-1.834,3.608l-4.394,0l1.886,-3.608Zm10.255,0l4.606,0l-1.869,3.608l-4.731,0l1.994,-3.608Zm10.31,0l4.714,0l-1.716,3.608l-4.891,0l1.893,-3.608Zm10.502,0l4.544,0l-1.841,3.608l-4.675,0l1.973,-3.608Zm-50.176,0.019l3.054,0l-1.247,2.375l-1.807,-2.375Zm76.138,2.276c1.748,1.518 0.533,4.011 -1.288,4.055c-1.254,0.03 -3.074,-2.264 -1.105,-4.134l1.312,1.297l1.081,-1.218Zm-64.23,1.918l4.44,0l-1.671,3.247l-4.349,0l1.581,-3.247Zm9.869,0.026l4.871,0l-1.716,3.247l-4.634,0l1.48,-3.247Zm10.429,0l4.846,0l-1.581,3.247l-4.895,0l1.629,-3.247Zm10.39,0l4.808,0l-1.497,3.247l-5.083,0l1.772,-3.247Zm-39.65,0.124l3.064,0l-1.306,2.6l-1.758,-2.6Zm2.31,3.765l44.99,0.432l-0.764,1.578l-43.082,0.007l-1.143,-2.018Zm1.581,2.826l42.159,0.113l-0.97,2.184l-14.566,-0.072c-2.842,-2.295 -6.09,-1.234 -9.796,0.072c0,0 -11.15,0.126 -15.535,0l-1.292,-2.297Zm59.163,5.573c2.339,3.238 4.017,7.749 4.697,11.308c0.674,3.639 -0.057,5.421 -0.917,2.236c-1.425,-7.963 -10.153,-9.126 -14.048,-2.958c-5.41,8.569 4.067,18.968 10.863,12.003c0.58,-0.594 0.902,-0.738 1.098,-0.488c0.227,0.29 0.07,0.549 -1.14,1.867c-4.72,5.145 -2.967,12.551 3.425,14.273c9.073,2.444 14.558,-9.552 6.628,-15.215c-0.825,-0.679 -0.911,-0.851 -0.612,-1.218c0.269,-0.328 0.501,-0.29 1.235,0.428c6.796,6.65 16.08,-2.039 11.78,-11.026c-3.312,-6.922 -12.529,-5.652 -14.735,2.04c-0.412,1.433 -0.442,1.516 -0.671,1.676c-0.945,0.039 -0.279,-3.342 -0.135,-4.235c1.069,-3.946 2.25,-7.639 4.509,-10.691l-11.977,-0.001Zm-73.183,3.679l22.236,37.966l-4.915,-0.06l-21.114,-35.715l3.794,-2.192Zm-4.457,2.473l20.992,35.484c-0.964,-0.024 -1.857,0.04 -2.821,0.024c0.39,-6.627 -4.539,-9.734 -7.436,-9.892c1.737,-7.75 -3.486,-11.011 -6.97,-11.626c1.413,-10.072 -6.294,-11.5 -6.407,-11.398c0.038,-0.827 -0.106,-1.423 -0.209,-2.113l2.85,-0.478l0.001,-0.001Zm-3.401,0.562c-0.045,0.213 0.395,2.22 -0.434,1.85l-0.059,-1.846l0.493,-0.004Zm-4.419,0.051c0.3,1.335 0.933,1.599 1.795,2.494c0,0 -1.101,0.202 -1.356,0.011c-0.458,-0.342 -1.413,-2.516 -1.413,-2.516l0.975,0.01Zm3.283,2.258c0.532,0 0.962,0.469 0.962,1.045c0,0.576 -0.43,1.041 -0.962,1.041c-0.532,0 -0.962,-0.465 -0.962,-1.041c0,-0.576 0.43,-1.045 0.962,-1.045Zm1.907,0.802c2.761,-0.195 6.765,3.009 5.71,9.004c-0.184,-0.419 -0.401,-1.34 -0.85,-1.993c-1.904,-2.777 -4.145,1.029 -2.634,2.582c0.741,0.761 1.087,1.062 1.008,1.131c-1.702,-0.35 -2.991,1.281 -2.283,3.09c1.181,2.342 2.821,1.101 3.77,-0.288c0,0 0.585,2.096 1.165,2.362c0.89,0.408 2.117,-0.109 2.535,-1.272c0.622,-1.73 -0.891,-2.173 -1.223,-3.136c3.194,0.112 7.264,5.163 5.412,9.542c0.243,-0.999 -0.746,-3.234 -2.669,-2.657c-0.961,0.363 -1.296,1.877 -0.52,3.435c0.248,0.499 0.382,0.684 0.382,0.684c0,0 -0.832,0.119 -1.051,0.264c-2.496,1.662 0.721,6.197 2.579,3.362c0.189,-0.337 0.5,-0.722 0.5,-0.722c0.307,0.632 0.4,1.52 0.96,1.825c2.299,1.252 3.324,-1.39 2.358,-2.686c-0.544,-0.729 -1.158,-1.571 -1.158,-1.571c-0.096,-0.467 6.891,1.515 6.04,8.868l-18.522,-0.027c1.717,-11.295 -2.44,-24.216 -4.562,-28.154l0.919,-1.312c0.23,0.488 0.613,1.715 1.289,1.951c2.149,0.748 2.803,-0.876 2.516,-2.546c-0.153,-0.889 -1.305,-1.605 -1.67,-1.733l-0.001,-0.002Zm4.904,10.63c0.505,0 0.914,0.446 0.914,0.992c0,0.546 -0.409,0.988 -0.914,0.988c-0.505,0 -0.917,-0.442 -0.917,-0.988c0,-0.546 0.412,-0.992 0.917,-0.992Zm6.951,11.766c0.51,0 0.924,0.448 0.924,0.999c0,0.552 -0.414,0.999 -0.924,0.999c-0.51,0 -0.924,-0.448 -0.924,-0.999c0,-0.552 0.414,-0.999 0.924,-0.999Z" style="fill-rule:nonzero;"/></g></g></svg>